G04 #@! TF.GenerationSoftware,KiCad,Pcbnew,(5.1.6)-1*
G04 #@! TF.CreationDate,2020-06-25T17:10:26+02:00*
G04 #@! TF.ProjectId,plc-EV-rpi,706c632d-4556-42d7-9270-692e6b696361,rev?*
G04 #@! TF.SameCoordinates,Original*
G04 #@! TF.FileFunction,Soldermask,Top*
G04 #@! TF.FilePolarity,Negative*
%FSLAX46Y46*%
G04 Gerber Fmt 4.6, Leading zero omitted, Abs format (unit mm)*
G04 Created by KiCad (PCBNEW (5.1.6)-1) date 2020-06-25 17:10:26*
%MOMM*%
%LPD*%
G01*
G04 APERTURE LIST*
%ADD10O,1.800000X1.800000*%
%ADD11R,1.800000X1.800000*%
%ADD12C,1.100000*%
%ADD13R,0.950000X1.800000*%
%ADD14R,2.100000X1.600000*%
%ADD15R,2.100000X3.900000*%
%ADD16R,1.000000X0.900000*%
%ADD17R,0.900000X1.000000*%
%ADD18R,1.200000X1.200000*%
%ADD19C,2.800000*%
G04 APERTURE END LIST*
G04 #@! TO.C,R601*
G36*
G01*
X182097500Y-91675000D02*
X181702500Y-91675000D01*
G75*
G02*
X181530000Y-91502500I0J172500D01*
G01*
X181530000Y-91157500D01*
G75*
G02*
X181702500Y-90985000I172500J0D01*
G01*
X182097500Y-90985000D01*
G75*
G02*
X182270000Y-91157500I0J-172500D01*
G01*
X182270000Y-91502500D01*
G75*
G02*
X182097500Y-91675000I-172500J0D01*
G01*
G37*
G36*
G01*
X182097500Y-92645000D02*
X181702500Y-92645000D01*
G75*
G02*
X181530000Y-92472500I0J172500D01*
G01*
X181530000Y-92127500D01*
G75*
G02*
X181702500Y-91955000I172500J0D01*
G01*
X182097500Y-91955000D01*
G75*
G02*
X182270000Y-92127500I0J-172500D01*
G01*
X182270000Y-92472500D01*
G75*
G02*
X182097500Y-92645000I-172500J0D01*
G01*
G37*
G04 #@! TD*
D10*
G04 #@! TO.C,J601*
X187000000Y-90460000D03*
X187000000Y-93000000D03*
D11*
X187000000Y-95540000D03*
G04 #@! TD*
G04 #@! TO.C,D601*
G36*
G01*
X179737500Y-86081250D02*
X179737500Y-85118750D01*
G75*
G02*
X180006250Y-84850000I268750J0D01*
G01*
X180543750Y-84850000D01*
G75*
G02*
X180812500Y-85118750I0J-268750D01*
G01*
X180812500Y-86081250D01*
G75*
G02*
X180543750Y-86350000I-268750J0D01*
G01*
X180006250Y-86350000D01*
G75*
G02*
X179737500Y-86081250I0J268750D01*
G01*
G37*
G36*
G01*
X177862500Y-86081250D02*
X177862500Y-85118750D01*
G75*
G02*
X178131250Y-84850000I268750J0D01*
G01*
X178668750Y-84850000D01*
G75*
G02*
X178937500Y-85118750I0J-268750D01*
G01*
X178937500Y-86081250D01*
G75*
G02*
X178668750Y-86350000I-268750J0D01*
G01*
X178131250Y-86350000D01*
G75*
G02*
X177862500Y-86081250I0J268750D01*
G01*
G37*
G04 #@! TD*
D12*
G04 #@! TO.C,TP603*
X168300000Y-93600000D03*
G04 #@! TD*
G04 #@! TO.C,TP602*
X164600000Y-90400000D03*
G04 #@! TD*
G04 #@! TO.C,TP601*
X164600000Y-87800000D03*
G04 #@! TD*
G04 #@! TO.C,TP401*
X138700000Y-103500000D03*
G04 #@! TD*
G04 #@! TO.C,TP304*
X156100000Y-95300000D03*
G04 #@! TD*
G04 #@! TO.C,TP303*
X150900000Y-98000000D03*
G04 #@! TD*
G04 #@! TO.C,TP302*
X159300000Y-89900000D03*
G04 #@! TD*
G04 #@! TO.C,TP301*
X138700000Y-90600000D03*
G04 #@! TD*
G04 #@! TO.C,U601*
G36*
G01*
X172862500Y-94775000D02*
X172862500Y-95025000D01*
G75*
G02*
X172737500Y-95150000I-125000J0D01*
G01*
X171412500Y-95150000D01*
G75*
G02*
X171287500Y-95025000I0J125000D01*
G01*
X171287500Y-94775000D01*
G75*
G02*
X171412500Y-94650000I125000J0D01*
G01*
X172737500Y-94650000D01*
G75*
G02*
X172862500Y-94775000I0J-125000D01*
G01*
G37*
G36*
G01*
X172862500Y-94125000D02*
X172862500Y-94375000D01*
G75*
G02*
X172737500Y-94500000I-125000J0D01*
G01*
X171412500Y-94500000D01*
G75*
G02*
X171287500Y-94375000I0J125000D01*
G01*
X171287500Y-94125000D01*
G75*
G02*
X171412500Y-94000000I125000J0D01*
G01*
X172737500Y-94000000D01*
G75*
G02*
X172862500Y-94125000I0J-125000D01*
G01*
G37*
G36*
G01*
X172862500Y-93475000D02*
X172862500Y-93725000D01*
G75*
G02*
X172737500Y-93850000I-125000J0D01*
G01*
X171412500Y-93850000D01*
G75*
G02*
X171287500Y-93725000I0J125000D01*
G01*
X171287500Y-93475000D01*
G75*
G02*
X171412500Y-93350000I125000J0D01*
G01*
X172737500Y-93350000D01*
G75*
G02*
X172862500Y-93475000I0J-125000D01*
G01*
G37*
G36*
G01*
X172862500Y-92825000D02*
X172862500Y-93075000D01*
G75*
G02*
X172737500Y-93200000I-125000J0D01*
G01*
X171412500Y-93200000D01*
G75*
G02*
X171287500Y-93075000I0J125000D01*
G01*
X171287500Y-92825000D01*
G75*
G02*
X171412500Y-92700000I125000J0D01*
G01*
X172737500Y-92700000D01*
G75*
G02*
X172862500Y-92825000I0J-125000D01*
G01*
G37*
G36*
G01*
X172862500Y-92175000D02*
X172862500Y-92425000D01*
G75*
G02*
X172737500Y-92550000I-125000J0D01*
G01*
X171412500Y-92550000D01*
G75*
G02*
X171287500Y-92425000I0J125000D01*
G01*
X171287500Y-92175000D01*
G75*
G02*
X171412500Y-92050000I125000J0D01*
G01*
X172737500Y-92050000D01*
G75*
G02*
X172862500Y-92175000I0J-125000D01*
G01*
G37*
G36*
G01*
X172862500Y-91525000D02*
X172862500Y-91775000D01*
G75*
G02*
X172737500Y-91900000I-125000J0D01*
G01*
X171412500Y-91900000D01*
G75*
G02*
X171287500Y-91775000I0J125000D01*
G01*
X171287500Y-91525000D01*
G75*
G02*
X171412500Y-91400000I125000J0D01*
G01*
X172737500Y-91400000D01*
G75*
G02*
X172862500Y-91525000I0J-125000D01*
G01*
G37*
G36*
G01*
X172862500Y-90875000D02*
X172862500Y-91125000D01*
G75*
G02*
X172737500Y-91250000I-125000J0D01*
G01*
X171412500Y-91250000D01*
G75*
G02*
X171287500Y-91125000I0J125000D01*
G01*
X171287500Y-90875000D01*
G75*
G02*
X171412500Y-90750000I125000J0D01*
G01*
X172737500Y-90750000D01*
G75*
G02*
X172862500Y-90875000I0J-125000D01*
G01*
G37*
G36*
G01*
X172862500Y-90225000D02*
X172862500Y-90475000D01*
G75*
G02*
X172737500Y-90600000I-125000J0D01*
G01*
X171412500Y-90600000D01*
G75*
G02*
X171287500Y-90475000I0J125000D01*
G01*
X171287500Y-90225000D01*
G75*
G02*
X171412500Y-90100000I125000J0D01*
G01*
X172737500Y-90100000D01*
G75*
G02*
X172862500Y-90225000I0J-125000D01*
G01*
G37*
G36*
G01*
X172862500Y-89575000D02*
X172862500Y-89825000D01*
G75*
G02*
X172737500Y-89950000I-125000J0D01*
G01*
X171412500Y-89950000D01*
G75*
G02*
X171287500Y-89825000I0J125000D01*
G01*
X171287500Y-89575000D01*
G75*
G02*
X171412500Y-89450000I125000J0D01*
G01*
X172737500Y-89450000D01*
G75*
G02*
X172862500Y-89575000I0J-125000D01*
G01*
G37*
G36*
G01*
X172862500Y-88925000D02*
X172862500Y-89175000D01*
G75*
G02*
X172737500Y-89300000I-125000J0D01*
G01*
X171412500Y-89300000D01*
G75*
G02*
X171287500Y-89175000I0J125000D01*
G01*
X171287500Y-88925000D01*
G75*
G02*
X171412500Y-88800000I125000J0D01*
G01*
X172737500Y-88800000D01*
G75*
G02*
X172862500Y-88925000I0J-125000D01*
G01*
G37*
G36*
G01*
X178587500Y-88925000D02*
X178587500Y-89175000D01*
G75*
G02*
X178462500Y-89300000I-125000J0D01*
G01*
X177137500Y-89300000D01*
G75*
G02*
X177012500Y-89175000I0J125000D01*
G01*
X177012500Y-88925000D01*
G75*
G02*
X177137500Y-88800000I125000J0D01*
G01*
X178462500Y-88800000D01*
G75*
G02*
X178587500Y-88925000I0J-125000D01*
G01*
G37*
G36*
G01*
X178587500Y-89575000D02*
X178587500Y-89825000D01*
G75*
G02*
X178462500Y-89950000I-125000J0D01*
G01*
X177137500Y-89950000D01*
G75*
G02*
X177012500Y-89825000I0J125000D01*
G01*
X177012500Y-89575000D01*
G75*
G02*
X177137500Y-89450000I125000J0D01*
G01*
X178462500Y-89450000D01*
G75*
G02*
X178587500Y-89575000I0J-125000D01*
G01*
G37*
G36*
G01*
X178587500Y-90225000D02*
X178587500Y-90475000D01*
G75*
G02*
X178462500Y-90600000I-125000J0D01*
G01*
X177137500Y-90600000D01*
G75*
G02*
X177012500Y-90475000I0J125000D01*
G01*
X177012500Y-90225000D01*
G75*
G02*
X177137500Y-90100000I125000J0D01*
G01*
X178462500Y-90100000D01*
G75*
G02*
X178587500Y-90225000I0J-125000D01*
G01*
G37*
G36*
G01*
X178587500Y-90875000D02*
X178587500Y-91125000D01*
G75*
G02*
X178462500Y-91250000I-125000J0D01*
G01*
X177137500Y-91250000D01*
G75*
G02*
X177012500Y-91125000I0J125000D01*
G01*
X177012500Y-90875000D01*
G75*
G02*
X177137500Y-90750000I125000J0D01*
G01*
X178462500Y-90750000D01*
G75*
G02*
X178587500Y-90875000I0J-125000D01*
G01*
G37*
G36*
G01*
X178587500Y-91525000D02*
X178587500Y-91775000D01*
G75*
G02*
X178462500Y-91900000I-125000J0D01*
G01*
X177137500Y-91900000D01*
G75*
G02*
X177012500Y-91775000I0J125000D01*
G01*
X177012500Y-91525000D01*
G75*
G02*
X177137500Y-91400000I125000J0D01*
G01*
X178462500Y-91400000D01*
G75*
G02*
X178587500Y-91525000I0J-125000D01*
G01*
G37*
G36*
G01*
X178587500Y-92175000D02*
X178587500Y-92425000D01*
G75*
G02*
X178462500Y-92550000I-125000J0D01*
G01*
X177137500Y-92550000D01*
G75*
G02*
X177012500Y-92425000I0J125000D01*
G01*
X177012500Y-92175000D01*
G75*
G02*
X177137500Y-92050000I125000J0D01*
G01*
X178462500Y-92050000D01*
G75*
G02*
X178587500Y-92175000I0J-125000D01*
G01*
G37*
G36*
G01*
X178587500Y-92825000D02*
X178587500Y-93075000D01*
G75*
G02*
X178462500Y-93200000I-125000J0D01*
G01*
X177137500Y-93200000D01*
G75*
G02*
X177012500Y-93075000I0J125000D01*
G01*
X177012500Y-92825000D01*
G75*
G02*
X177137500Y-92700000I125000J0D01*
G01*
X178462500Y-92700000D01*
G75*
G02*
X178587500Y-92825000I0J-125000D01*
G01*
G37*
G36*
G01*
X178587500Y-93475000D02*
X178587500Y-93725000D01*
G75*
G02*
X178462500Y-93850000I-125000J0D01*
G01*
X177137500Y-93850000D01*
G75*
G02*
X177012500Y-93725000I0J125000D01*
G01*
X177012500Y-93475000D01*
G75*
G02*
X177137500Y-93350000I125000J0D01*
G01*
X178462500Y-93350000D01*
G75*
G02*
X178587500Y-93475000I0J-125000D01*
G01*
G37*
G36*
G01*
X178587500Y-94125000D02*
X178587500Y-94375000D01*
G75*
G02*
X178462500Y-94500000I-125000J0D01*
G01*
X177137500Y-94500000D01*
G75*
G02*
X177012500Y-94375000I0J125000D01*
G01*
X177012500Y-94125000D01*
G75*
G02*
X177137500Y-94000000I125000J0D01*
G01*
X178462500Y-94000000D01*
G75*
G02*
X178587500Y-94125000I0J-125000D01*
G01*
G37*
G36*
G01*
X178587500Y-94775000D02*
X178587500Y-95025000D01*
G75*
G02*
X178462500Y-95150000I-125000J0D01*
G01*
X177137500Y-95150000D01*
G75*
G02*
X177012500Y-95025000I0J125000D01*
G01*
X177012500Y-94775000D01*
G75*
G02*
X177137500Y-94650000I125000J0D01*
G01*
X178462500Y-94650000D01*
G75*
G02*
X178587500Y-94775000I0J-125000D01*
G01*
G37*
G04 #@! TD*
D13*
G04 #@! TO.C,U502*
X179820000Y-129060000D03*
X178550000Y-129060000D03*
X177280000Y-129060000D03*
X176010000Y-129060000D03*
X174740000Y-129060000D03*
X173470000Y-129060000D03*
X172200000Y-129060000D03*
X170930000Y-129060000D03*
X149340000Y-107740000D03*
X150610000Y-107740000D03*
X160770000Y-107740000D03*
X174740000Y-107740000D03*
X176010000Y-107740000D03*
X177280000Y-107740000D03*
X178550000Y-107740000D03*
X179820000Y-107740000D03*
X181090000Y-107740000D03*
X182360000Y-107740000D03*
X183630000Y-107740000D03*
X184900000Y-107740000D03*
X186170000Y-107740000D03*
X187440000Y-107740000D03*
X188710000Y-107740000D03*
X189980000Y-107740000D03*
G04 #@! TD*
D14*
G04 #@! TO.C,U501*
X169700000Y-99500000D03*
X169700000Y-104100000D03*
X169700000Y-101800000D03*
D15*
X176000000Y-101800000D03*
G04 #@! TD*
G04 #@! TO.C,R509*
G36*
G01*
X167997500Y-101175000D02*
X167602500Y-101175000D01*
G75*
G02*
X167430000Y-101002500I0J172500D01*
G01*
X167430000Y-100657500D01*
G75*
G02*
X167602500Y-100485000I172500J0D01*
G01*
X167997500Y-100485000D01*
G75*
G02*
X168170000Y-100657500I0J-172500D01*
G01*
X168170000Y-101002500D01*
G75*
G02*
X167997500Y-101175000I-172500J0D01*
G01*
G37*
G36*
G01*
X167997500Y-102145000D02*
X167602500Y-102145000D01*
G75*
G02*
X167430000Y-101972500I0J172500D01*
G01*
X167430000Y-101627500D01*
G75*
G02*
X167602500Y-101455000I172500J0D01*
G01*
X167997500Y-101455000D01*
G75*
G02*
X168170000Y-101627500I0J-172500D01*
G01*
X168170000Y-101972500D01*
G75*
G02*
X167997500Y-102145000I-172500J0D01*
G01*
G37*
G04 #@! TD*
G04 #@! TO.C,R508*
G36*
G01*
X150481250Y-104262500D02*
X149518750Y-104262500D01*
G75*
G02*
X149250000Y-103993750I0J268750D01*
G01*
X149250000Y-103456250D01*
G75*
G02*
X149518750Y-103187500I268750J0D01*
G01*
X150481250Y-103187500D01*
G75*
G02*
X150750000Y-103456250I0J-268750D01*
G01*
X150750000Y-103993750D01*
G75*
G02*
X150481250Y-104262500I-268750J0D01*
G01*
G37*
G36*
G01*
X150481250Y-106137500D02*
X149518750Y-106137500D01*
G75*
G02*
X149250000Y-105868750I0J268750D01*
G01*
X149250000Y-105331250D01*
G75*
G02*
X149518750Y-105062500I268750J0D01*
G01*
X150481250Y-105062500D01*
G75*
G02*
X150750000Y-105331250I0J-268750D01*
G01*
X150750000Y-105868750D01*
G75*
G02*
X150481250Y-106137500I-268750J0D01*
G01*
G37*
G04 #@! TD*
G04 #@! TO.C,R507*
G36*
G01*
X174060000Y-105802500D02*
X174060000Y-106197500D01*
G75*
G02*
X173887500Y-106370000I-172500J0D01*
G01*
X173542500Y-106370000D01*
G75*
G02*
X173370000Y-106197500I0J172500D01*
G01*
X173370000Y-105802500D01*
G75*
G02*
X173542500Y-105630000I172500J0D01*
G01*
X173887500Y-105630000D01*
G75*
G02*
X174060000Y-105802500I0J-172500D01*
G01*
G37*
G36*
G01*
X175030000Y-105802500D02*
X175030000Y-106197500D01*
G75*
G02*
X174857500Y-106370000I-172500J0D01*
G01*
X174512500Y-106370000D01*
G75*
G02*
X174340000Y-106197500I0J172500D01*
G01*
X174340000Y-105802500D01*
G75*
G02*
X174512500Y-105630000I172500J0D01*
G01*
X174857500Y-105630000D01*
G75*
G02*
X175030000Y-105802500I0J-172500D01*
G01*
G37*
G04 #@! TD*
G04 #@! TO.C,R506*
G36*
G01*
X164275000Y-97702500D02*
X164275000Y-98097500D01*
G75*
G02*
X164102500Y-98270000I-172500J0D01*
G01*
X163757500Y-98270000D01*
G75*
G02*
X163585000Y-98097500I0J172500D01*
G01*
X163585000Y-97702500D01*
G75*
G02*
X163757500Y-97530000I172500J0D01*
G01*
X164102500Y-97530000D01*
G75*
G02*
X164275000Y-97702500I0J-172500D01*
G01*
G37*
G36*
G01*
X165245000Y-97702500D02*
X165245000Y-98097500D01*
G75*
G02*
X165072500Y-98270000I-172500J0D01*
G01*
X164727500Y-98270000D01*
G75*
G02*
X164555000Y-98097500I0J172500D01*
G01*
X164555000Y-97702500D01*
G75*
G02*
X164727500Y-97530000I172500J0D01*
G01*
X165072500Y-97530000D01*
G75*
G02*
X165245000Y-97702500I0J-172500D01*
G01*
G37*
G04 #@! TD*
G04 #@! TO.C,R505*
G36*
G01*
X163197500Y-103945000D02*
X162802500Y-103945000D01*
G75*
G02*
X162630000Y-103772500I0J172500D01*
G01*
X162630000Y-103427500D01*
G75*
G02*
X162802500Y-103255000I172500J0D01*
G01*
X163197500Y-103255000D01*
G75*
G02*
X163370000Y-103427500I0J-172500D01*
G01*
X163370000Y-103772500D01*
G75*
G02*
X163197500Y-103945000I-172500J0D01*
G01*
G37*
G36*
G01*
X163197500Y-104915000D02*
X162802500Y-104915000D01*
G75*
G02*
X162630000Y-104742500I0J172500D01*
G01*
X162630000Y-104397500D01*
G75*
G02*
X162802500Y-104225000I172500J0D01*
G01*
X163197500Y-104225000D01*
G75*
G02*
X163370000Y-104397500I0J-172500D01*
G01*
X163370000Y-104742500D01*
G75*
G02*
X163197500Y-104915000I-172500J0D01*
G01*
G37*
G04 #@! TD*
G04 #@! TO.C,R504*
G36*
G01*
X181445000Y-102902500D02*
X181445000Y-103297500D01*
G75*
G02*
X181272500Y-103470000I-172500J0D01*
G01*
X180927500Y-103470000D01*
G75*
G02*
X180755000Y-103297500I0J172500D01*
G01*
X180755000Y-102902500D01*
G75*
G02*
X180927500Y-102730000I172500J0D01*
G01*
X181272500Y-102730000D01*
G75*
G02*
X181445000Y-102902500I0J-172500D01*
G01*
G37*
G36*
G01*
X182415000Y-102902500D02*
X182415000Y-103297500D01*
G75*
G02*
X182242500Y-103470000I-172500J0D01*
G01*
X181897500Y-103470000D01*
G75*
G02*
X181725000Y-103297500I0J172500D01*
G01*
X181725000Y-102902500D01*
G75*
G02*
X181897500Y-102730000I172500J0D01*
G01*
X182242500Y-102730000D01*
G75*
G02*
X182415000Y-102902500I0J-172500D01*
G01*
G37*
G04 #@! TD*
G04 #@! TO.C,R503*
G36*
G01*
X187497500Y-104575000D02*
X187102500Y-104575000D01*
G75*
G02*
X186930000Y-104402500I0J172500D01*
G01*
X186930000Y-104057500D01*
G75*
G02*
X187102500Y-103885000I172500J0D01*
G01*
X187497500Y-103885000D01*
G75*
G02*
X187670000Y-104057500I0J-172500D01*
G01*
X187670000Y-104402500D01*
G75*
G02*
X187497500Y-104575000I-172500J0D01*
G01*
G37*
G36*
G01*
X187497500Y-105545000D02*
X187102500Y-105545000D01*
G75*
G02*
X186930000Y-105372500I0J172500D01*
G01*
X186930000Y-105027500D01*
G75*
G02*
X187102500Y-104855000I172500J0D01*
G01*
X187497500Y-104855000D01*
G75*
G02*
X187670000Y-105027500I0J-172500D01*
G01*
X187670000Y-105372500D01*
G75*
G02*
X187497500Y-105545000I-172500J0D01*
G01*
G37*
G04 #@! TD*
G04 #@! TO.C,R502*
G36*
G01*
X188597500Y-104575000D02*
X188202500Y-104575000D01*
G75*
G02*
X188030000Y-104402500I0J172500D01*
G01*
X188030000Y-104057500D01*
G75*
G02*
X188202500Y-103885000I172500J0D01*
G01*
X188597500Y-103885000D01*
G75*
G02*
X188770000Y-104057500I0J-172500D01*
G01*
X188770000Y-104402500D01*
G75*
G02*
X188597500Y-104575000I-172500J0D01*
G01*
G37*
G36*
G01*
X188597500Y-105545000D02*
X188202500Y-105545000D01*
G75*
G02*
X188030000Y-105372500I0J172500D01*
G01*
X188030000Y-105027500D01*
G75*
G02*
X188202500Y-104855000I172500J0D01*
G01*
X188597500Y-104855000D01*
G75*
G02*
X188770000Y-105027500I0J-172500D01*
G01*
X188770000Y-105372500D01*
G75*
G02*
X188597500Y-105545000I-172500J0D01*
G01*
G37*
G04 #@! TD*
G04 #@! TO.C,R501*
G36*
G01*
X189655000Y-102097500D02*
X189655000Y-101702500D01*
G75*
G02*
X189827500Y-101530000I172500J0D01*
G01*
X190172500Y-101530000D01*
G75*
G02*
X190345000Y-101702500I0J-172500D01*
G01*
X190345000Y-102097500D01*
G75*
G02*
X190172500Y-102270000I-172500J0D01*
G01*
X189827500Y-102270000D01*
G75*
G02*
X189655000Y-102097500I0J172500D01*
G01*
G37*
G36*
G01*
X188685000Y-102097500D02*
X188685000Y-101702500D01*
G75*
G02*
X188857500Y-101530000I172500J0D01*
G01*
X189202500Y-101530000D01*
G75*
G02*
X189375000Y-101702500I0J-172500D01*
G01*
X189375000Y-102097500D01*
G75*
G02*
X189202500Y-102270000I-172500J0D01*
G01*
X188857500Y-102270000D01*
G75*
G02*
X188685000Y-102097500I0J172500D01*
G01*
G37*
G04 #@! TD*
G04 #@! TO.C,R404*
G36*
G01*
X145218750Y-103787500D02*
X145781250Y-103787500D01*
G75*
G02*
X146025000Y-104031250I0J-243750D01*
G01*
X146025000Y-104518750D01*
G75*
G02*
X145781250Y-104762500I-243750J0D01*
G01*
X145218750Y-104762500D01*
G75*
G02*
X144975000Y-104518750I0J243750D01*
G01*
X144975000Y-104031250D01*
G75*
G02*
X145218750Y-103787500I243750J0D01*
G01*
G37*
G36*
G01*
X145218750Y-102212500D02*
X145781250Y-102212500D01*
G75*
G02*
X146025000Y-102456250I0J-243750D01*
G01*
X146025000Y-102943750D01*
G75*
G02*
X145781250Y-103187500I-243750J0D01*
G01*
X145218750Y-103187500D01*
G75*
G02*
X144975000Y-102943750I0J243750D01*
G01*
X144975000Y-102456250D01*
G75*
G02*
X145218750Y-102212500I243750J0D01*
G01*
G37*
G04 #@! TD*
G04 #@! TO.C,R403*
G36*
G01*
X145218750Y-100612500D02*
X145781250Y-100612500D01*
G75*
G02*
X146025000Y-100856250I0J-243750D01*
G01*
X146025000Y-101343750D01*
G75*
G02*
X145781250Y-101587500I-243750J0D01*
G01*
X145218750Y-101587500D01*
G75*
G02*
X144975000Y-101343750I0J243750D01*
G01*
X144975000Y-100856250D01*
G75*
G02*
X145218750Y-100612500I243750J0D01*
G01*
G37*
G36*
G01*
X145218750Y-99037500D02*
X145781250Y-99037500D01*
G75*
G02*
X146025000Y-99281250I0J-243750D01*
G01*
X146025000Y-99768750D01*
G75*
G02*
X145781250Y-100012500I-243750J0D01*
G01*
X145218750Y-100012500D01*
G75*
G02*
X144975000Y-99768750I0J243750D01*
G01*
X144975000Y-99281250D01*
G75*
G02*
X145218750Y-99037500I243750J0D01*
G01*
G37*
G04 #@! TD*
G04 #@! TO.C,R402*
G36*
G01*
X143618750Y-99000000D02*
X144181250Y-99000000D01*
G75*
G02*
X144425000Y-99243750I0J-243750D01*
G01*
X144425000Y-99731250D01*
G75*
G02*
X144181250Y-99975000I-243750J0D01*
G01*
X143618750Y-99975000D01*
G75*
G02*
X143375000Y-99731250I0J243750D01*
G01*
X143375000Y-99243750D01*
G75*
G02*
X143618750Y-99000000I243750J0D01*
G01*
G37*
G36*
G01*
X143618750Y-97425000D02*
X144181250Y-97425000D01*
G75*
G02*
X144425000Y-97668750I0J-243750D01*
G01*
X144425000Y-98156250D01*
G75*
G02*
X144181250Y-98400000I-243750J0D01*
G01*
X143618750Y-98400000D01*
G75*
G02*
X143375000Y-98156250I0J243750D01*
G01*
X143375000Y-97668750D01*
G75*
G02*
X143618750Y-97425000I243750J0D01*
G01*
G37*
G04 #@! TD*
G04 #@! TO.C,R401*
G36*
G01*
X142302500Y-100140000D02*
X142697500Y-100140000D01*
G75*
G02*
X142870000Y-100312500I0J-172500D01*
G01*
X142870000Y-100657500D01*
G75*
G02*
X142697500Y-100830000I-172500J0D01*
G01*
X142302500Y-100830000D01*
G75*
G02*
X142130000Y-100657500I0J172500D01*
G01*
X142130000Y-100312500D01*
G75*
G02*
X142302500Y-100140000I172500J0D01*
G01*
G37*
G36*
G01*
X142302500Y-99170000D02*
X142697500Y-99170000D01*
G75*
G02*
X142870000Y-99342500I0J-172500D01*
G01*
X142870000Y-99687500D01*
G75*
G02*
X142697500Y-99860000I-172500J0D01*
G01*
X142302500Y-99860000D01*
G75*
G02*
X142130000Y-99687500I0J172500D01*
G01*
X142130000Y-99342500D01*
G75*
G02*
X142302500Y-99170000I172500J0D01*
G01*
G37*
G04 #@! TD*
G04 #@! TO.C,R308*
G36*
G01*
X154397500Y-96745000D02*
X154002500Y-96745000D01*
G75*
G02*
X153830000Y-96572500I0J172500D01*
G01*
X153830000Y-96227500D01*
G75*
G02*
X154002500Y-96055000I172500J0D01*
G01*
X154397500Y-96055000D01*
G75*
G02*
X154570000Y-96227500I0J-172500D01*
G01*
X154570000Y-96572500D01*
G75*
G02*
X154397500Y-96745000I-172500J0D01*
G01*
G37*
G36*
G01*
X154397500Y-97715000D02*
X154002500Y-97715000D01*
G75*
G02*
X153830000Y-97542500I0J172500D01*
G01*
X153830000Y-97197500D01*
G75*
G02*
X154002500Y-97025000I172500J0D01*
G01*
X154397500Y-97025000D01*
G75*
G02*
X154570000Y-97197500I0J-172500D01*
G01*
X154570000Y-97542500D01*
G75*
G02*
X154397500Y-97715000I-172500J0D01*
G01*
G37*
G04 #@! TD*
G04 #@! TO.C,R307*
G36*
G01*
X154397500Y-94745000D02*
X154002500Y-94745000D01*
G75*
G02*
X153830000Y-94572500I0J172500D01*
G01*
X153830000Y-94227500D01*
G75*
G02*
X154002500Y-94055000I172500J0D01*
G01*
X154397500Y-94055000D01*
G75*
G02*
X154570000Y-94227500I0J-172500D01*
G01*
X154570000Y-94572500D01*
G75*
G02*
X154397500Y-94745000I-172500J0D01*
G01*
G37*
G36*
G01*
X154397500Y-95715000D02*
X154002500Y-95715000D01*
G75*
G02*
X153830000Y-95542500I0J172500D01*
G01*
X153830000Y-95197500D01*
G75*
G02*
X154002500Y-95025000I172500J0D01*
G01*
X154397500Y-95025000D01*
G75*
G02*
X154570000Y-95197500I0J-172500D01*
G01*
X154570000Y-95542500D01*
G75*
G02*
X154397500Y-95715000I-172500J0D01*
G01*
G37*
G04 #@! TD*
G04 #@! TO.C,R306*
G36*
G01*
X150602500Y-91955000D02*
X150997500Y-91955000D01*
G75*
G02*
X151170000Y-92127500I0J-172500D01*
G01*
X151170000Y-92472500D01*
G75*
G02*
X150997500Y-92645000I-172500J0D01*
G01*
X150602500Y-92645000D01*
G75*
G02*
X150430000Y-92472500I0J172500D01*
G01*
X150430000Y-92127500D01*
G75*
G02*
X150602500Y-91955000I172500J0D01*
G01*
G37*
G36*
G01*
X150602500Y-90985000D02*
X150997500Y-90985000D01*
G75*
G02*
X151170000Y-91157500I0J-172500D01*
G01*
X151170000Y-91502500D01*
G75*
G02*
X150997500Y-91675000I-172500J0D01*
G01*
X150602500Y-91675000D01*
G75*
G02*
X150430000Y-91502500I0J172500D01*
G01*
X150430000Y-91157500D01*
G75*
G02*
X150602500Y-90985000I172500J0D01*
G01*
G37*
G04 #@! TD*
G04 #@! TO.C,R305*
G36*
G01*
X150602500Y-94055000D02*
X150997500Y-94055000D01*
G75*
G02*
X151170000Y-94227500I0J-172500D01*
G01*
X151170000Y-94572500D01*
G75*
G02*
X150997500Y-94745000I-172500J0D01*
G01*
X150602500Y-94745000D01*
G75*
G02*
X150430000Y-94572500I0J172500D01*
G01*
X150430000Y-94227500D01*
G75*
G02*
X150602500Y-94055000I172500J0D01*
G01*
G37*
G36*
G01*
X150602500Y-93085000D02*
X150997500Y-93085000D01*
G75*
G02*
X151170000Y-93257500I0J-172500D01*
G01*
X151170000Y-93602500D01*
G75*
G02*
X150997500Y-93775000I-172500J0D01*
G01*
X150602500Y-93775000D01*
G75*
G02*
X150430000Y-93602500I0J172500D01*
G01*
X150430000Y-93257500D01*
G75*
G02*
X150602500Y-93085000I172500J0D01*
G01*
G37*
G04 #@! TD*
G04 #@! TO.C,R304*
G36*
G01*
X154002500Y-89555000D02*
X154397500Y-89555000D01*
G75*
G02*
X154570000Y-89727500I0J-172500D01*
G01*
X154570000Y-90072500D01*
G75*
G02*
X154397500Y-90245000I-172500J0D01*
G01*
X154002500Y-90245000D01*
G75*
G02*
X153830000Y-90072500I0J172500D01*
G01*
X153830000Y-89727500D01*
G75*
G02*
X154002500Y-89555000I172500J0D01*
G01*
G37*
G36*
G01*
X154002500Y-88585000D02*
X154397500Y-88585000D01*
G75*
G02*
X154570000Y-88757500I0J-172500D01*
G01*
X154570000Y-89102500D01*
G75*
G02*
X154397500Y-89275000I-172500J0D01*
G01*
X154002500Y-89275000D01*
G75*
G02*
X153830000Y-89102500I0J172500D01*
G01*
X153830000Y-88757500D01*
G75*
G02*
X154002500Y-88585000I172500J0D01*
G01*
G37*
G04 #@! TD*
G04 #@! TO.C,R303*
G36*
G01*
X146418750Y-91812500D02*
X146981250Y-91812500D01*
G75*
G02*
X147225000Y-92056250I0J-243750D01*
G01*
X147225000Y-92543750D01*
G75*
G02*
X146981250Y-92787500I-243750J0D01*
G01*
X146418750Y-92787500D01*
G75*
G02*
X146175000Y-92543750I0J243750D01*
G01*
X146175000Y-92056250D01*
G75*
G02*
X146418750Y-91812500I243750J0D01*
G01*
G37*
G36*
G01*
X146418750Y-90237500D02*
X146981250Y-90237500D01*
G75*
G02*
X147225000Y-90481250I0J-243750D01*
G01*
X147225000Y-90968750D01*
G75*
G02*
X146981250Y-91212500I-243750J0D01*
G01*
X146418750Y-91212500D01*
G75*
G02*
X146175000Y-90968750I0J243750D01*
G01*
X146175000Y-90481250D01*
G75*
G02*
X146418750Y-90237500I243750J0D01*
G01*
G37*
G04 #@! TD*
G04 #@! TO.C,R302*
G36*
G01*
X146502500Y-89125000D02*
X146897500Y-89125000D01*
G75*
G02*
X147070000Y-89297500I0J-172500D01*
G01*
X147070000Y-89642500D01*
G75*
G02*
X146897500Y-89815000I-172500J0D01*
G01*
X146502500Y-89815000D01*
G75*
G02*
X146330000Y-89642500I0J172500D01*
G01*
X146330000Y-89297500D01*
G75*
G02*
X146502500Y-89125000I172500J0D01*
G01*
G37*
G36*
G01*
X146502500Y-88155000D02*
X146897500Y-88155000D01*
G75*
G02*
X147070000Y-88327500I0J-172500D01*
G01*
X147070000Y-88672500D01*
G75*
G02*
X146897500Y-88845000I-172500J0D01*
G01*
X146502500Y-88845000D01*
G75*
G02*
X146330000Y-88672500I0J172500D01*
G01*
X146330000Y-88327500D01*
G75*
G02*
X146502500Y-88155000I172500J0D01*
G01*
G37*
G04 #@! TD*
G04 #@! TO.C,R301*
G36*
G01*
X145325000Y-88697500D02*
X145325000Y-88302500D01*
G75*
G02*
X145497500Y-88130000I172500J0D01*
G01*
X145842500Y-88130000D01*
G75*
G02*
X146015000Y-88302500I0J-172500D01*
G01*
X146015000Y-88697500D01*
G75*
G02*
X145842500Y-88870000I-172500J0D01*
G01*
X145497500Y-88870000D01*
G75*
G02*
X145325000Y-88697500I0J172500D01*
G01*
G37*
G36*
G01*
X144355000Y-88697500D02*
X144355000Y-88302500D01*
G75*
G02*
X144527500Y-88130000I172500J0D01*
G01*
X144872500Y-88130000D01*
G75*
G02*
X145045000Y-88302500I0J-172500D01*
G01*
X145045000Y-88697500D01*
G75*
G02*
X144872500Y-88870000I-172500J0D01*
G01*
X144527500Y-88870000D01*
G75*
G02*
X144355000Y-88697500I0J172500D01*
G01*
G37*
G04 #@! TD*
G04 #@! TO.C,R207*
G36*
G01*
X169202500Y-87455000D02*
X169597500Y-87455000D01*
G75*
G02*
X169770000Y-87627500I0J-172500D01*
G01*
X169770000Y-87972500D01*
G75*
G02*
X169597500Y-88145000I-172500J0D01*
G01*
X169202500Y-88145000D01*
G75*
G02*
X169030000Y-87972500I0J172500D01*
G01*
X169030000Y-87627500D01*
G75*
G02*
X169202500Y-87455000I172500J0D01*
G01*
G37*
G36*
G01*
X169202500Y-86485000D02*
X169597500Y-86485000D01*
G75*
G02*
X169770000Y-86657500I0J-172500D01*
G01*
X169770000Y-87002500D01*
G75*
G02*
X169597500Y-87175000I-172500J0D01*
G01*
X169202500Y-87175000D01*
G75*
G02*
X169030000Y-87002500I0J172500D01*
G01*
X169030000Y-86657500D01*
G75*
G02*
X169202500Y-86485000I172500J0D01*
G01*
G37*
G04 #@! TD*
G04 #@! TO.C,R206*
G36*
G01*
X170302500Y-87455000D02*
X170697500Y-87455000D01*
G75*
G02*
X170870000Y-87627500I0J-172500D01*
G01*
X170870000Y-87972500D01*
G75*
G02*
X170697500Y-88145000I-172500J0D01*
G01*
X170302500Y-88145000D01*
G75*
G02*
X170130000Y-87972500I0J172500D01*
G01*
X170130000Y-87627500D01*
G75*
G02*
X170302500Y-87455000I172500J0D01*
G01*
G37*
G36*
G01*
X170302500Y-86485000D02*
X170697500Y-86485000D01*
G75*
G02*
X170870000Y-86657500I0J-172500D01*
G01*
X170870000Y-87002500D01*
G75*
G02*
X170697500Y-87175000I-172500J0D01*
G01*
X170302500Y-87175000D01*
G75*
G02*
X170130000Y-87002500I0J172500D01*
G01*
X170130000Y-86657500D01*
G75*
G02*
X170302500Y-86485000I172500J0D01*
G01*
G37*
G04 #@! TD*
G04 #@! TO.C,R205*
G36*
G01*
X142445000Y-86502500D02*
X142445000Y-86897500D01*
G75*
G02*
X142272500Y-87070000I-172500J0D01*
G01*
X141927500Y-87070000D01*
G75*
G02*
X141755000Y-86897500I0J172500D01*
G01*
X141755000Y-86502500D01*
G75*
G02*
X141927500Y-86330000I172500J0D01*
G01*
X142272500Y-86330000D01*
G75*
G02*
X142445000Y-86502500I0J-172500D01*
G01*
G37*
G36*
G01*
X143415000Y-86502500D02*
X143415000Y-86897500D01*
G75*
G02*
X143242500Y-87070000I-172500J0D01*
G01*
X142897500Y-87070000D01*
G75*
G02*
X142725000Y-86897500I0J172500D01*
G01*
X142725000Y-86502500D01*
G75*
G02*
X142897500Y-86330000I172500J0D01*
G01*
X143242500Y-86330000D01*
G75*
G02*
X143415000Y-86502500I0J-172500D01*
G01*
G37*
G04 #@! TD*
G04 #@! TO.C,R203*
G36*
G01*
X142445000Y-84402500D02*
X142445000Y-84797500D01*
G75*
G02*
X142272500Y-84970000I-172500J0D01*
G01*
X141927500Y-84970000D01*
G75*
G02*
X141755000Y-84797500I0J172500D01*
G01*
X141755000Y-84402500D01*
G75*
G02*
X141927500Y-84230000I172500J0D01*
G01*
X142272500Y-84230000D01*
G75*
G02*
X142445000Y-84402500I0J-172500D01*
G01*
G37*
G36*
G01*
X143415000Y-84402500D02*
X143415000Y-84797500D01*
G75*
G02*
X143242500Y-84970000I-172500J0D01*
G01*
X142897500Y-84970000D01*
G75*
G02*
X142725000Y-84797500I0J172500D01*
G01*
X142725000Y-84402500D01*
G75*
G02*
X142897500Y-84230000I172500J0D01*
G01*
X143242500Y-84230000D01*
G75*
G02*
X143415000Y-84402500I0J-172500D01*
G01*
G37*
G04 #@! TD*
G04 #@! TO.C,R202*
G36*
G01*
X155797500Y-89275000D02*
X155402500Y-89275000D01*
G75*
G02*
X155230000Y-89102500I0J172500D01*
G01*
X155230000Y-88757500D01*
G75*
G02*
X155402500Y-88585000I172500J0D01*
G01*
X155797500Y-88585000D01*
G75*
G02*
X155970000Y-88757500I0J-172500D01*
G01*
X155970000Y-89102500D01*
G75*
G02*
X155797500Y-89275000I-172500J0D01*
G01*
G37*
G36*
G01*
X155797500Y-90245000D02*
X155402500Y-90245000D01*
G75*
G02*
X155230000Y-90072500I0J172500D01*
G01*
X155230000Y-89727500D01*
G75*
G02*
X155402500Y-89555000I172500J0D01*
G01*
X155797500Y-89555000D01*
G75*
G02*
X155970000Y-89727500I0J-172500D01*
G01*
X155970000Y-90072500D01*
G75*
G02*
X155797500Y-90245000I-172500J0D01*
G01*
G37*
G04 #@! TD*
G04 #@! TO.C,R201*
G36*
G01*
X170002500Y-93255000D02*
X170397500Y-93255000D01*
G75*
G02*
X170570000Y-93427500I0J-172500D01*
G01*
X170570000Y-93772500D01*
G75*
G02*
X170397500Y-93945000I-172500J0D01*
G01*
X170002500Y-93945000D01*
G75*
G02*
X169830000Y-93772500I0J172500D01*
G01*
X169830000Y-93427500D01*
G75*
G02*
X170002500Y-93255000I172500J0D01*
G01*
G37*
G36*
G01*
X170002500Y-92285000D02*
X170397500Y-92285000D01*
G75*
G02*
X170570000Y-92457500I0J-172500D01*
G01*
X170570000Y-92802500D01*
G75*
G02*
X170397500Y-92975000I-172500J0D01*
G01*
X170002500Y-92975000D01*
G75*
G02*
X169830000Y-92802500I0J172500D01*
G01*
X169830000Y-92457500D01*
G75*
G02*
X170002500Y-92285000I172500J0D01*
G01*
G37*
G04 #@! TD*
D16*
G04 #@! TO.C,Q502*
X166400000Y-104100000D03*
X164400000Y-105050000D03*
X164400000Y-103150000D03*
G04 #@! TD*
D17*
G04 #@! TO.C,Q501*
X164400000Y-101300000D03*
X163450000Y-99300000D03*
X165350000Y-99300000D03*
G04 #@! TD*
G04 #@! TO.C,Q301*
X151750000Y-87900000D03*
X152700000Y-89900000D03*
X150800000Y-89900000D03*
G04 #@! TD*
D10*
G04 #@! TO.C,J501*
X198000000Y-109500000D03*
X198000000Y-112040000D03*
X198000000Y-114580000D03*
X198000000Y-117120000D03*
X198000000Y-119660000D03*
D11*
X198000000Y-122200000D03*
G04 #@! TD*
D10*
G04 #@! TO.C,J201*
X193160000Y-78660000D03*
X193160000Y-81200000D03*
X190620000Y-78660000D03*
X190620000Y-81200000D03*
X188080000Y-78660000D03*
X188080000Y-81200000D03*
X185540000Y-78660000D03*
X185540000Y-81200000D03*
X183000000Y-78660000D03*
X183000000Y-81200000D03*
X180460000Y-78660000D03*
X180460000Y-81200000D03*
X177920000Y-78660000D03*
X177920000Y-81200000D03*
X175380000Y-78660000D03*
X175380000Y-81200000D03*
X172840000Y-78660000D03*
X172840000Y-81200000D03*
X170300000Y-78660000D03*
X170300000Y-81200000D03*
X167760000Y-78660000D03*
X167760000Y-81200000D03*
X165220000Y-78660000D03*
X165220000Y-81200000D03*
X162680000Y-78660000D03*
X162680000Y-81200000D03*
X160140000Y-78660000D03*
X160140000Y-81200000D03*
X157600000Y-78660000D03*
X157600000Y-81200000D03*
X155060000Y-78660000D03*
X155060000Y-81200000D03*
X152520000Y-78660000D03*
X152520000Y-81200000D03*
X149980000Y-78660000D03*
X149980000Y-81200000D03*
X147440000Y-78660000D03*
X147440000Y-81200000D03*
X144900000Y-78660000D03*
D11*
X144900000Y-81200000D03*
G04 #@! TD*
D10*
G04 #@! TO.C,J101*
X138700000Y-94420000D03*
X138700000Y-96960000D03*
D11*
X138700000Y-99500000D03*
G04 #@! TD*
G04 #@! TO.C,D502*
G36*
G01*
X166818750Y-98837500D02*
X167781250Y-98837500D01*
G75*
G02*
X168050000Y-99106250I0J-268750D01*
G01*
X168050000Y-99643750D01*
G75*
G02*
X167781250Y-99912500I-268750J0D01*
G01*
X166818750Y-99912500D01*
G75*
G02*
X166550000Y-99643750I0J268750D01*
G01*
X166550000Y-99106250D01*
G75*
G02*
X166818750Y-98837500I268750J0D01*
G01*
G37*
G36*
G01*
X166818750Y-96962500D02*
X167781250Y-96962500D01*
G75*
G02*
X168050000Y-97231250I0J-268750D01*
G01*
X168050000Y-97768750D01*
G75*
G02*
X167781250Y-98037500I-268750J0D01*
G01*
X166818750Y-98037500D01*
G75*
G02*
X166550000Y-97768750I0J268750D01*
G01*
X166550000Y-97231250D01*
G75*
G02*
X166818750Y-96962500I268750J0D01*
G01*
G37*
G04 #@! TD*
G04 #@! TO.C,D501*
G36*
G01*
X190481250Y-103862500D02*
X189518750Y-103862500D01*
G75*
G02*
X189250000Y-103593750I0J268750D01*
G01*
X189250000Y-103056250D01*
G75*
G02*
X189518750Y-102787500I268750J0D01*
G01*
X190481250Y-102787500D01*
G75*
G02*
X190750000Y-103056250I0J-268750D01*
G01*
X190750000Y-103593750D01*
G75*
G02*
X190481250Y-103862500I-268750J0D01*
G01*
G37*
G36*
G01*
X190481250Y-105737500D02*
X189518750Y-105737500D01*
G75*
G02*
X189250000Y-105468750I0J268750D01*
G01*
X189250000Y-104931250D01*
G75*
G02*
X189518750Y-104662500I268750J0D01*
G01*
X190481250Y-104662500D01*
G75*
G02*
X190750000Y-104931250I0J-268750D01*
G01*
X190750000Y-105468750D01*
G75*
G02*
X190481250Y-105737500I-268750J0D01*
G01*
G37*
G04 #@! TD*
D18*
G04 #@! TO.C,D301*
X143900000Y-94400000D03*
X146700000Y-94400000D03*
G04 #@! TD*
G04 #@! TO.C,D203*
G36*
G01*
X140162500Y-87181250D02*
X140162500Y-86218750D01*
G75*
G02*
X140431250Y-85950000I268750J0D01*
G01*
X140968750Y-85950000D01*
G75*
G02*
X141237500Y-86218750I0J-268750D01*
G01*
X141237500Y-87181250D01*
G75*
G02*
X140968750Y-87450000I-268750J0D01*
G01*
X140431250Y-87450000D01*
G75*
G02*
X140162500Y-87181250I0J268750D01*
G01*
G37*
G36*
G01*
X138287500Y-87181250D02*
X138287500Y-86218750D01*
G75*
G02*
X138556250Y-85950000I268750J0D01*
G01*
X139093750Y-85950000D01*
G75*
G02*
X139362500Y-86218750I0J-268750D01*
G01*
X139362500Y-87181250D01*
G75*
G02*
X139093750Y-87450000I-268750J0D01*
G01*
X138556250Y-87450000D01*
G75*
G02*
X138287500Y-87181250I0J268750D01*
G01*
G37*
G04 #@! TD*
G04 #@! TO.C,D202*
G36*
G01*
X140162500Y-85081250D02*
X140162500Y-84118750D01*
G75*
G02*
X140431250Y-83850000I268750J0D01*
G01*
X140968750Y-83850000D01*
G75*
G02*
X141237500Y-84118750I0J-268750D01*
G01*
X141237500Y-85081250D01*
G75*
G02*
X140968750Y-85350000I-268750J0D01*
G01*
X140431250Y-85350000D01*
G75*
G02*
X140162500Y-85081250I0J268750D01*
G01*
G37*
G36*
G01*
X138287500Y-85081250D02*
X138287500Y-84118750D01*
G75*
G02*
X138556250Y-83850000I268750J0D01*
G01*
X139093750Y-83850000D01*
G75*
G02*
X139362500Y-84118750I0J-268750D01*
G01*
X139362500Y-85081250D01*
G75*
G02*
X139093750Y-85350000I-268750J0D01*
G01*
X138556250Y-85350000D01*
G75*
G02*
X138287500Y-85081250I0J268750D01*
G01*
G37*
G04 #@! TD*
G04 #@! TO.C,D201*
G36*
G01*
X155118750Y-86537500D02*
X156081250Y-86537500D01*
G75*
G02*
X156350000Y-86806250I0J-268750D01*
G01*
X156350000Y-87343750D01*
G75*
G02*
X156081250Y-87612500I-268750J0D01*
G01*
X155118750Y-87612500D01*
G75*
G02*
X154850000Y-87343750I0J268750D01*
G01*
X154850000Y-86806250D01*
G75*
G02*
X155118750Y-86537500I268750J0D01*
G01*
G37*
G36*
G01*
X155118750Y-84662500D02*
X156081250Y-84662500D01*
G75*
G02*
X156350000Y-84931250I0J-268750D01*
G01*
X156350000Y-85468750D01*
G75*
G02*
X156081250Y-85737500I-268750J0D01*
G01*
X155118750Y-85737500D01*
G75*
G02*
X154850000Y-85468750I0J268750D01*
G01*
X154850000Y-84931250D01*
G75*
G02*
X155118750Y-84662500I268750J0D01*
G01*
G37*
G04 #@! TD*
G04 #@! TO.C,C603*
G36*
G01*
X180797500Y-88875000D02*
X180402500Y-88875000D01*
G75*
G02*
X180230000Y-88702500I0J172500D01*
G01*
X180230000Y-88357500D01*
G75*
G02*
X180402500Y-88185000I172500J0D01*
G01*
X180797500Y-88185000D01*
G75*
G02*
X180970000Y-88357500I0J-172500D01*
G01*
X180970000Y-88702500D01*
G75*
G02*
X180797500Y-88875000I-172500J0D01*
G01*
G37*
G36*
G01*
X180797500Y-89845000D02*
X180402500Y-89845000D01*
G75*
G02*
X180230000Y-89672500I0J172500D01*
G01*
X180230000Y-89327500D01*
G75*
G02*
X180402500Y-89155000I172500J0D01*
G01*
X180797500Y-89155000D01*
G75*
G02*
X180970000Y-89327500I0J-172500D01*
G01*
X180970000Y-89672500D01*
G75*
G02*
X180797500Y-89845000I-172500J0D01*
G01*
G37*
G04 #@! TD*
G04 #@! TO.C,C602*
G36*
G01*
X179697500Y-88875000D02*
X179302500Y-88875000D01*
G75*
G02*
X179130000Y-88702500I0J172500D01*
G01*
X179130000Y-88357500D01*
G75*
G02*
X179302500Y-88185000I172500J0D01*
G01*
X179697500Y-88185000D01*
G75*
G02*
X179870000Y-88357500I0J-172500D01*
G01*
X179870000Y-88702500D01*
G75*
G02*
X179697500Y-88875000I-172500J0D01*
G01*
G37*
G36*
G01*
X179697500Y-89845000D02*
X179302500Y-89845000D01*
G75*
G02*
X179130000Y-89672500I0J172500D01*
G01*
X179130000Y-89327500D01*
G75*
G02*
X179302500Y-89155000I172500J0D01*
G01*
X179697500Y-89155000D01*
G75*
G02*
X179870000Y-89327500I0J-172500D01*
G01*
X179870000Y-89672500D01*
G75*
G02*
X179697500Y-89845000I-172500J0D01*
G01*
G37*
G04 #@! TD*
G04 #@! TO.C,C601*
G36*
G01*
X179302500Y-91125000D02*
X179697500Y-91125000D01*
G75*
G02*
X179870000Y-91297500I0J-172500D01*
G01*
X179870000Y-91642500D01*
G75*
G02*
X179697500Y-91815000I-172500J0D01*
G01*
X179302500Y-91815000D01*
G75*
G02*
X179130000Y-91642500I0J172500D01*
G01*
X179130000Y-91297500D01*
G75*
G02*
X179302500Y-91125000I172500J0D01*
G01*
G37*
G36*
G01*
X179302500Y-90155000D02*
X179697500Y-90155000D01*
G75*
G02*
X179870000Y-90327500I0J-172500D01*
G01*
X179870000Y-90672500D01*
G75*
G02*
X179697500Y-90845000I-172500J0D01*
G01*
X179302500Y-90845000D01*
G75*
G02*
X179130000Y-90672500I0J172500D01*
G01*
X179130000Y-90327500D01*
G75*
G02*
X179302500Y-90155000I172500J0D01*
G01*
G37*
G04 #@! TD*
G04 #@! TO.C,C502*
G36*
G01*
X178097500Y-101260000D02*
X177702500Y-101260000D01*
G75*
G02*
X177530000Y-101087500I0J172500D01*
G01*
X177530000Y-100742500D01*
G75*
G02*
X177702500Y-100570000I172500J0D01*
G01*
X178097500Y-100570000D01*
G75*
G02*
X178270000Y-100742500I0J-172500D01*
G01*
X178270000Y-101087500D01*
G75*
G02*
X178097500Y-101260000I-172500J0D01*
G01*
G37*
G36*
G01*
X178097500Y-102230000D02*
X177702500Y-102230000D01*
G75*
G02*
X177530000Y-102057500I0J172500D01*
G01*
X177530000Y-101712500D01*
G75*
G02*
X177702500Y-101540000I172500J0D01*
G01*
X178097500Y-101540000D01*
G75*
G02*
X178270000Y-101712500I0J-172500D01*
G01*
X178270000Y-102057500D01*
G75*
G02*
X178097500Y-102230000I-172500J0D01*
G01*
G37*
G04 #@! TD*
G04 #@! TO.C,C501*
G36*
G01*
X167997500Y-103475000D02*
X167602500Y-103475000D01*
G75*
G02*
X167430000Y-103302500I0J172500D01*
G01*
X167430000Y-102957500D01*
G75*
G02*
X167602500Y-102785000I172500J0D01*
G01*
X167997500Y-102785000D01*
G75*
G02*
X168170000Y-102957500I0J-172500D01*
G01*
X168170000Y-103302500D01*
G75*
G02*
X167997500Y-103475000I-172500J0D01*
G01*
G37*
G36*
G01*
X167997500Y-104445000D02*
X167602500Y-104445000D01*
G75*
G02*
X167430000Y-104272500I0J172500D01*
G01*
X167430000Y-103927500D01*
G75*
G02*
X167602500Y-103755000I172500J0D01*
G01*
X167997500Y-103755000D01*
G75*
G02*
X168170000Y-103927500I0J-172500D01*
G01*
X168170000Y-104272500D01*
G75*
G02*
X167997500Y-104445000I-172500J0D01*
G01*
G37*
G04 #@! TD*
D19*
G04 #@! TO.C,REF\u002A\u002A*
X140000000Y-129000000D03*
G04 #@! TD*
G04 #@! TO.C,REF\u002A\u002A*
X198000000Y-129000000D03*
G04 #@! TD*
G04 #@! TO.C,REF\u002A\u002A*
X198000000Y-80000000D03*
G04 #@! TD*
G04 #@! TO.C,REF\u002A\u002A*
X140000000Y-80000000D03*
G04 #@! TD*
M02*
