G04 #@! TF.GenerationSoftware,KiCad,Pcbnew,(5.1.6)-1*
G04 #@! TF.CreationDate,2020-06-25T17:10:26+02:00*
G04 #@! TF.ProjectId,plc-EV-rpi,706c632d-4556-42d7-9270-692e6b696361,rev?*
G04 #@! TF.SameCoordinates,Original*
G04 #@! TF.FileFunction,Legend,Bot*
G04 #@! TF.FilePolarity,Positive*
%FSLAX46Y46*%
G04 Gerber Fmt 4.6, Leading zero omitted, Abs format (unit mm)*
G04 Created by KiCad (PCBNEW (5.1.6)-1) date 2020-06-25 17:10:26*
%MOMM*%
%LPD*%
G01*
G04 APERTURE LIST*
%ADD10C,0.150000*%
%ADD11C,0.120000*%
%ADD12O,1.800000X1.800000*%
%ADD13R,1.800000X1.800000*%
%ADD14C,2.800000*%
G04 APERTURE END LIST*
D10*
X145290476Y-99952380D02*
X145290476Y-98952380D01*
X144909523Y-98952380D01*
X144814285Y-99000000D01*
X144766666Y-99047619D01*
X144719047Y-99142857D01*
X144719047Y-99285714D01*
X144766666Y-99380952D01*
X144814285Y-99428571D01*
X144909523Y-99476190D01*
X145290476Y-99476190D01*
X143719047Y-99952380D02*
X144052380Y-99476190D01*
X144290476Y-99952380D02*
X144290476Y-98952380D01*
X143909523Y-98952380D01*
X143814285Y-99000000D01*
X143766666Y-99047619D01*
X143719047Y-99142857D01*
X143719047Y-99285714D01*
X143766666Y-99380952D01*
X143814285Y-99428571D01*
X143909523Y-99476190D01*
X144290476Y-99476190D01*
X143100000Y-98952380D02*
X142909523Y-98952380D01*
X142814285Y-99000000D01*
X142719047Y-99095238D01*
X142671428Y-99285714D01*
X142671428Y-99619047D01*
X142719047Y-99809523D01*
X142814285Y-99904761D01*
X142909523Y-99952380D01*
X143100000Y-99952380D01*
X143195238Y-99904761D01*
X143290476Y-99809523D01*
X143338095Y-99619047D01*
X143338095Y-99285714D01*
X143290476Y-99095238D01*
X143195238Y-99000000D01*
X143100000Y-98952380D01*
X142338095Y-98952380D02*
X141671428Y-99952380D01*
X141671428Y-98952380D02*
X142338095Y-99952380D01*
X141100000Y-99476190D02*
X141100000Y-99952380D01*
X141433333Y-98952380D02*
X141100000Y-99476190D01*
X140766666Y-98952380D01*
X142861904Y-96500000D02*
X142957142Y-96452380D01*
X143100000Y-96452380D01*
X143242857Y-96500000D01*
X143338095Y-96595238D01*
X143385714Y-96690476D01*
X143433333Y-96880952D01*
X143433333Y-97023809D01*
X143385714Y-97214285D01*
X143338095Y-97309523D01*
X143242857Y-97404761D01*
X143100000Y-97452380D01*
X143004761Y-97452380D01*
X142861904Y-97404761D01*
X142814285Y-97357142D01*
X142814285Y-97023809D01*
X143004761Y-97023809D01*
X142385714Y-97452380D02*
X142385714Y-96452380D01*
X141814285Y-97452380D01*
X141814285Y-96452380D01*
X141338095Y-97452380D02*
X141338095Y-96452380D01*
X141100000Y-96452380D01*
X140957142Y-96500000D01*
X140861904Y-96595238D01*
X140814285Y-96690476D01*
X140766666Y-96880952D01*
X140766666Y-97023809D01*
X140814285Y-97214285D01*
X140861904Y-97309523D01*
X140957142Y-97404761D01*
X141100000Y-97452380D01*
X141338095Y-97452380D01*
X144409523Y-94952380D02*
X144409523Y-93952380D01*
X144028571Y-93952380D01*
X143933333Y-94000000D01*
X143885714Y-94047619D01*
X143838095Y-94142857D01*
X143838095Y-94285714D01*
X143885714Y-94380952D01*
X143933333Y-94428571D01*
X144028571Y-94476190D01*
X144409523Y-94476190D01*
X143409523Y-94952380D02*
X143409523Y-93952380D01*
X142457142Y-94952380D02*
X142933333Y-94952380D01*
X142933333Y-93952380D01*
X141933333Y-93952380D02*
X141742857Y-93952380D01*
X141647619Y-94000000D01*
X141552380Y-94095238D01*
X141504761Y-94285714D01*
X141504761Y-94619047D01*
X141552380Y-94809523D01*
X141647619Y-94904761D01*
X141742857Y-94952380D01*
X141933333Y-94952380D01*
X142028571Y-94904761D01*
X142123809Y-94809523D01*
X142171428Y-94619047D01*
X142171428Y-94285714D01*
X142123809Y-94095238D01*
X142028571Y-94000000D01*
X141933333Y-93952380D01*
X141219047Y-93952380D02*
X140647619Y-93952380D01*
X140933333Y-94952380D02*
X140933333Y-93952380D01*
D11*
G04 #@! TO.C,J201*
X143570000Y-77330000D02*
X143570000Y-79930000D01*
X143570000Y-77330000D02*
X194490000Y-77330000D01*
X194490000Y-77330000D02*
X194490000Y-82530000D01*
X146170000Y-82530000D02*
X194490000Y-82530000D01*
X146170000Y-79930000D02*
X146170000Y-82530000D01*
X143570000Y-79930000D02*
X146170000Y-79930000D01*
X143570000Y-82530000D02*
X144900000Y-82530000D01*
X143570000Y-81200000D02*
X143570000Y-82530000D01*
G04 #@! TD*
%LPC*%
D12*
G04 #@! TO.C,J601*
X187000000Y-90460000D03*
X187000000Y-93000000D03*
D13*
X187000000Y-95540000D03*
G04 #@! TD*
D12*
G04 #@! TO.C,J501*
X198000000Y-109500000D03*
X198000000Y-112040000D03*
X198000000Y-114580000D03*
X198000000Y-117120000D03*
X198000000Y-119660000D03*
D13*
X198000000Y-122200000D03*
G04 #@! TD*
D12*
G04 #@! TO.C,J201*
X193160000Y-78660000D03*
X193160000Y-81200000D03*
X190620000Y-78660000D03*
X190620000Y-81200000D03*
X188080000Y-78660000D03*
X188080000Y-81200000D03*
X185540000Y-78660000D03*
X185540000Y-81200000D03*
X183000000Y-78660000D03*
X183000000Y-81200000D03*
X180460000Y-78660000D03*
X180460000Y-81200000D03*
X177920000Y-78660000D03*
X177920000Y-81200000D03*
X175380000Y-78660000D03*
X175380000Y-81200000D03*
X172840000Y-78660000D03*
X172840000Y-81200000D03*
X170300000Y-78660000D03*
X170300000Y-81200000D03*
X167760000Y-78660000D03*
X167760000Y-81200000D03*
X165220000Y-78660000D03*
X165220000Y-81200000D03*
X162680000Y-78660000D03*
X162680000Y-81200000D03*
X160140000Y-78660000D03*
X160140000Y-81200000D03*
X157600000Y-78660000D03*
X157600000Y-81200000D03*
X155060000Y-78660000D03*
X155060000Y-81200000D03*
X152520000Y-78660000D03*
X152520000Y-81200000D03*
X149980000Y-78660000D03*
X149980000Y-81200000D03*
X147440000Y-78660000D03*
X147440000Y-81200000D03*
X144900000Y-78660000D03*
D13*
X144900000Y-81200000D03*
G04 #@! TD*
D12*
G04 #@! TO.C,J101*
X138700000Y-94420000D03*
X138700000Y-96960000D03*
D13*
X138700000Y-99500000D03*
G04 #@! TD*
D14*
G04 #@! TO.C,REF\u002A\u002A*
X140000000Y-129000000D03*
G04 #@! TD*
G04 #@! TO.C,REF\u002A\u002A*
X198000000Y-129000000D03*
G04 #@! TD*
G04 #@! TO.C,REF\u002A\u002A*
X198000000Y-80000000D03*
G04 #@! TD*
G04 #@! TO.C,REF\u002A\u002A*
X140000000Y-80000000D03*
G04 #@! TD*
M02*
