G04 #@! TF.GenerationSoftware,KiCad,Pcbnew,(5.1.6)-1*
G04 #@! TF.CreationDate,2020-06-25T17:10:26+02:00*
G04 #@! TF.ProjectId,plc-EV-rpi,706c632d-4556-42d7-9270-692e6b696361,rev?*
G04 #@! TF.SameCoordinates,Original*
G04 #@! TF.FileFunction,Paste,Top*
G04 #@! TF.FilePolarity,Positive*
%FSLAX46Y46*%
G04 Gerber Fmt 4.6, Leading zero omitted, Abs format (unit mm)*
G04 Created by KiCad (PCBNEW (5.1.6)-1) date 2020-06-25 17:10:26*
%MOMM*%
%LPD*%
G01*
G04 APERTURE LIST*
%ADD10R,0.850000X1.700000*%
%ADD11R,2.000000X1.500000*%
%ADD12R,2.000000X3.800000*%
%ADD13R,0.900000X0.800000*%
%ADD14R,0.800000X0.900000*%
%ADD15R,1.100000X1.100000*%
G04 APERTURE END LIST*
G04 #@! TO.C,R601*
G36*
G01*
X182072500Y-91625000D02*
X181727500Y-91625000D01*
G75*
G02*
X181580000Y-91477500I0J147500D01*
G01*
X181580000Y-91182500D01*
G75*
G02*
X181727500Y-91035000I147500J0D01*
G01*
X182072500Y-91035000D01*
G75*
G02*
X182220000Y-91182500I0J-147500D01*
G01*
X182220000Y-91477500D01*
G75*
G02*
X182072500Y-91625000I-147500J0D01*
G01*
G37*
G36*
G01*
X182072500Y-92595000D02*
X181727500Y-92595000D01*
G75*
G02*
X181580000Y-92447500I0J147500D01*
G01*
X181580000Y-92152500D01*
G75*
G02*
X181727500Y-92005000I147500J0D01*
G01*
X182072500Y-92005000D01*
G75*
G02*
X182220000Y-92152500I0J-147500D01*
G01*
X182220000Y-92447500D01*
G75*
G02*
X182072500Y-92595000I-147500J0D01*
G01*
G37*
G04 #@! TD*
G04 #@! TO.C,D601*
G36*
G01*
X179787500Y-86056250D02*
X179787500Y-85143750D01*
G75*
G02*
X180031250Y-84900000I243750J0D01*
G01*
X180518750Y-84900000D01*
G75*
G02*
X180762500Y-85143750I0J-243750D01*
G01*
X180762500Y-86056250D01*
G75*
G02*
X180518750Y-86300000I-243750J0D01*
G01*
X180031250Y-86300000D01*
G75*
G02*
X179787500Y-86056250I0J243750D01*
G01*
G37*
G36*
G01*
X177912500Y-86056250D02*
X177912500Y-85143750D01*
G75*
G02*
X178156250Y-84900000I243750J0D01*
G01*
X178643750Y-84900000D01*
G75*
G02*
X178887500Y-85143750I0J-243750D01*
G01*
X178887500Y-86056250D01*
G75*
G02*
X178643750Y-86300000I-243750J0D01*
G01*
X178156250Y-86300000D01*
G75*
G02*
X177912500Y-86056250I0J243750D01*
G01*
G37*
G04 #@! TD*
G04 #@! TO.C,U601*
G36*
G01*
X172812500Y-94800000D02*
X172812500Y-95000000D01*
G75*
G02*
X172712500Y-95100000I-100000J0D01*
G01*
X171437500Y-95100000D01*
G75*
G02*
X171337500Y-95000000I0J100000D01*
G01*
X171337500Y-94800000D01*
G75*
G02*
X171437500Y-94700000I100000J0D01*
G01*
X172712500Y-94700000D01*
G75*
G02*
X172812500Y-94800000I0J-100000D01*
G01*
G37*
G36*
G01*
X172812500Y-94150000D02*
X172812500Y-94350000D01*
G75*
G02*
X172712500Y-94450000I-100000J0D01*
G01*
X171437500Y-94450000D01*
G75*
G02*
X171337500Y-94350000I0J100000D01*
G01*
X171337500Y-94150000D01*
G75*
G02*
X171437500Y-94050000I100000J0D01*
G01*
X172712500Y-94050000D01*
G75*
G02*
X172812500Y-94150000I0J-100000D01*
G01*
G37*
G36*
G01*
X172812500Y-93500000D02*
X172812500Y-93700000D01*
G75*
G02*
X172712500Y-93800000I-100000J0D01*
G01*
X171437500Y-93800000D01*
G75*
G02*
X171337500Y-93700000I0J100000D01*
G01*
X171337500Y-93500000D01*
G75*
G02*
X171437500Y-93400000I100000J0D01*
G01*
X172712500Y-93400000D01*
G75*
G02*
X172812500Y-93500000I0J-100000D01*
G01*
G37*
G36*
G01*
X172812500Y-92850000D02*
X172812500Y-93050000D01*
G75*
G02*
X172712500Y-93150000I-100000J0D01*
G01*
X171437500Y-93150000D01*
G75*
G02*
X171337500Y-93050000I0J100000D01*
G01*
X171337500Y-92850000D01*
G75*
G02*
X171437500Y-92750000I100000J0D01*
G01*
X172712500Y-92750000D01*
G75*
G02*
X172812500Y-92850000I0J-100000D01*
G01*
G37*
G36*
G01*
X172812500Y-92200000D02*
X172812500Y-92400000D01*
G75*
G02*
X172712500Y-92500000I-100000J0D01*
G01*
X171437500Y-92500000D01*
G75*
G02*
X171337500Y-92400000I0J100000D01*
G01*
X171337500Y-92200000D01*
G75*
G02*
X171437500Y-92100000I100000J0D01*
G01*
X172712500Y-92100000D01*
G75*
G02*
X172812500Y-92200000I0J-100000D01*
G01*
G37*
G36*
G01*
X172812500Y-91550000D02*
X172812500Y-91750000D01*
G75*
G02*
X172712500Y-91850000I-100000J0D01*
G01*
X171437500Y-91850000D01*
G75*
G02*
X171337500Y-91750000I0J100000D01*
G01*
X171337500Y-91550000D01*
G75*
G02*
X171437500Y-91450000I100000J0D01*
G01*
X172712500Y-91450000D01*
G75*
G02*
X172812500Y-91550000I0J-100000D01*
G01*
G37*
G36*
G01*
X172812500Y-90900000D02*
X172812500Y-91100000D01*
G75*
G02*
X172712500Y-91200000I-100000J0D01*
G01*
X171437500Y-91200000D01*
G75*
G02*
X171337500Y-91100000I0J100000D01*
G01*
X171337500Y-90900000D01*
G75*
G02*
X171437500Y-90800000I100000J0D01*
G01*
X172712500Y-90800000D01*
G75*
G02*
X172812500Y-90900000I0J-100000D01*
G01*
G37*
G36*
G01*
X172812500Y-90250000D02*
X172812500Y-90450000D01*
G75*
G02*
X172712500Y-90550000I-100000J0D01*
G01*
X171437500Y-90550000D01*
G75*
G02*
X171337500Y-90450000I0J100000D01*
G01*
X171337500Y-90250000D01*
G75*
G02*
X171437500Y-90150000I100000J0D01*
G01*
X172712500Y-90150000D01*
G75*
G02*
X172812500Y-90250000I0J-100000D01*
G01*
G37*
G36*
G01*
X172812500Y-89600000D02*
X172812500Y-89800000D01*
G75*
G02*
X172712500Y-89900000I-100000J0D01*
G01*
X171437500Y-89900000D01*
G75*
G02*
X171337500Y-89800000I0J100000D01*
G01*
X171337500Y-89600000D01*
G75*
G02*
X171437500Y-89500000I100000J0D01*
G01*
X172712500Y-89500000D01*
G75*
G02*
X172812500Y-89600000I0J-100000D01*
G01*
G37*
G36*
G01*
X172812500Y-88950000D02*
X172812500Y-89150000D01*
G75*
G02*
X172712500Y-89250000I-100000J0D01*
G01*
X171437500Y-89250000D01*
G75*
G02*
X171337500Y-89150000I0J100000D01*
G01*
X171337500Y-88950000D01*
G75*
G02*
X171437500Y-88850000I100000J0D01*
G01*
X172712500Y-88850000D01*
G75*
G02*
X172812500Y-88950000I0J-100000D01*
G01*
G37*
G36*
G01*
X178537500Y-88950000D02*
X178537500Y-89150000D01*
G75*
G02*
X178437500Y-89250000I-100000J0D01*
G01*
X177162500Y-89250000D01*
G75*
G02*
X177062500Y-89150000I0J100000D01*
G01*
X177062500Y-88950000D01*
G75*
G02*
X177162500Y-88850000I100000J0D01*
G01*
X178437500Y-88850000D01*
G75*
G02*
X178537500Y-88950000I0J-100000D01*
G01*
G37*
G36*
G01*
X178537500Y-89600000D02*
X178537500Y-89800000D01*
G75*
G02*
X178437500Y-89900000I-100000J0D01*
G01*
X177162500Y-89900000D01*
G75*
G02*
X177062500Y-89800000I0J100000D01*
G01*
X177062500Y-89600000D01*
G75*
G02*
X177162500Y-89500000I100000J0D01*
G01*
X178437500Y-89500000D01*
G75*
G02*
X178537500Y-89600000I0J-100000D01*
G01*
G37*
G36*
G01*
X178537500Y-90250000D02*
X178537500Y-90450000D01*
G75*
G02*
X178437500Y-90550000I-100000J0D01*
G01*
X177162500Y-90550000D01*
G75*
G02*
X177062500Y-90450000I0J100000D01*
G01*
X177062500Y-90250000D01*
G75*
G02*
X177162500Y-90150000I100000J0D01*
G01*
X178437500Y-90150000D01*
G75*
G02*
X178537500Y-90250000I0J-100000D01*
G01*
G37*
G36*
G01*
X178537500Y-90900000D02*
X178537500Y-91100000D01*
G75*
G02*
X178437500Y-91200000I-100000J0D01*
G01*
X177162500Y-91200000D01*
G75*
G02*
X177062500Y-91100000I0J100000D01*
G01*
X177062500Y-90900000D01*
G75*
G02*
X177162500Y-90800000I100000J0D01*
G01*
X178437500Y-90800000D01*
G75*
G02*
X178537500Y-90900000I0J-100000D01*
G01*
G37*
G36*
G01*
X178537500Y-91550000D02*
X178537500Y-91750000D01*
G75*
G02*
X178437500Y-91850000I-100000J0D01*
G01*
X177162500Y-91850000D01*
G75*
G02*
X177062500Y-91750000I0J100000D01*
G01*
X177062500Y-91550000D01*
G75*
G02*
X177162500Y-91450000I100000J0D01*
G01*
X178437500Y-91450000D01*
G75*
G02*
X178537500Y-91550000I0J-100000D01*
G01*
G37*
G36*
G01*
X178537500Y-92200000D02*
X178537500Y-92400000D01*
G75*
G02*
X178437500Y-92500000I-100000J0D01*
G01*
X177162500Y-92500000D01*
G75*
G02*
X177062500Y-92400000I0J100000D01*
G01*
X177062500Y-92200000D01*
G75*
G02*
X177162500Y-92100000I100000J0D01*
G01*
X178437500Y-92100000D01*
G75*
G02*
X178537500Y-92200000I0J-100000D01*
G01*
G37*
G36*
G01*
X178537500Y-92850000D02*
X178537500Y-93050000D01*
G75*
G02*
X178437500Y-93150000I-100000J0D01*
G01*
X177162500Y-93150000D01*
G75*
G02*
X177062500Y-93050000I0J100000D01*
G01*
X177062500Y-92850000D01*
G75*
G02*
X177162500Y-92750000I100000J0D01*
G01*
X178437500Y-92750000D01*
G75*
G02*
X178537500Y-92850000I0J-100000D01*
G01*
G37*
G36*
G01*
X178537500Y-93500000D02*
X178537500Y-93700000D01*
G75*
G02*
X178437500Y-93800000I-100000J0D01*
G01*
X177162500Y-93800000D01*
G75*
G02*
X177062500Y-93700000I0J100000D01*
G01*
X177062500Y-93500000D01*
G75*
G02*
X177162500Y-93400000I100000J0D01*
G01*
X178437500Y-93400000D01*
G75*
G02*
X178537500Y-93500000I0J-100000D01*
G01*
G37*
G36*
G01*
X178537500Y-94150000D02*
X178537500Y-94350000D01*
G75*
G02*
X178437500Y-94450000I-100000J0D01*
G01*
X177162500Y-94450000D01*
G75*
G02*
X177062500Y-94350000I0J100000D01*
G01*
X177062500Y-94150000D01*
G75*
G02*
X177162500Y-94050000I100000J0D01*
G01*
X178437500Y-94050000D01*
G75*
G02*
X178537500Y-94150000I0J-100000D01*
G01*
G37*
G36*
G01*
X178537500Y-94800000D02*
X178537500Y-95000000D01*
G75*
G02*
X178437500Y-95100000I-100000J0D01*
G01*
X177162500Y-95100000D01*
G75*
G02*
X177062500Y-95000000I0J100000D01*
G01*
X177062500Y-94800000D01*
G75*
G02*
X177162500Y-94700000I100000J0D01*
G01*
X178437500Y-94700000D01*
G75*
G02*
X178537500Y-94800000I0J-100000D01*
G01*
G37*
G04 #@! TD*
D10*
G04 #@! TO.C,U502*
X179820000Y-129060000D03*
X178550000Y-129060000D03*
X177280000Y-129060000D03*
X176010000Y-129060000D03*
X174740000Y-129060000D03*
X173470000Y-129060000D03*
X172200000Y-129060000D03*
X170930000Y-129060000D03*
X149340000Y-107740000D03*
X150610000Y-107740000D03*
X160770000Y-107740000D03*
X174740000Y-107740000D03*
X176010000Y-107740000D03*
X177280000Y-107740000D03*
X178550000Y-107740000D03*
X179820000Y-107740000D03*
X181090000Y-107740000D03*
X182360000Y-107740000D03*
X183630000Y-107740000D03*
X184900000Y-107740000D03*
X186170000Y-107740000D03*
X187440000Y-107740000D03*
X188710000Y-107740000D03*
X189980000Y-107740000D03*
G04 #@! TD*
D11*
G04 #@! TO.C,U501*
X169700000Y-99500000D03*
X169700000Y-104100000D03*
X169700000Y-101800000D03*
D12*
X176000000Y-101800000D03*
G04 #@! TD*
G04 #@! TO.C,R509*
G36*
G01*
X167972500Y-101125000D02*
X167627500Y-101125000D01*
G75*
G02*
X167480000Y-100977500I0J147500D01*
G01*
X167480000Y-100682500D01*
G75*
G02*
X167627500Y-100535000I147500J0D01*
G01*
X167972500Y-100535000D01*
G75*
G02*
X168120000Y-100682500I0J-147500D01*
G01*
X168120000Y-100977500D01*
G75*
G02*
X167972500Y-101125000I-147500J0D01*
G01*
G37*
G36*
G01*
X167972500Y-102095000D02*
X167627500Y-102095000D01*
G75*
G02*
X167480000Y-101947500I0J147500D01*
G01*
X167480000Y-101652500D01*
G75*
G02*
X167627500Y-101505000I147500J0D01*
G01*
X167972500Y-101505000D01*
G75*
G02*
X168120000Y-101652500I0J-147500D01*
G01*
X168120000Y-101947500D01*
G75*
G02*
X167972500Y-102095000I-147500J0D01*
G01*
G37*
G04 #@! TD*
G04 #@! TO.C,R508*
G36*
G01*
X150456250Y-104212500D02*
X149543750Y-104212500D01*
G75*
G02*
X149300000Y-103968750I0J243750D01*
G01*
X149300000Y-103481250D01*
G75*
G02*
X149543750Y-103237500I243750J0D01*
G01*
X150456250Y-103237500D01*
G75*
G02*
X150700000Y-103481250I0J-243750D01*
G01*
X150700000Y-103968750D01*
G75*
G02*
X150456250Y-104212500I-243750J0D01*
G01*
G37*
G36*
G01*
X150456250Y-106087500D02*
X149543750Y-106087500D01*
G75*
G02*
X149300000Y-105843750I0J243750D01*
G01*
X149300000Y-105356250D01*
G75*
G02*
X149543750Y-105112500I243750J0D01*
G01*
X150456250Y-105112500D01*
G75*
G02*
X150700000Y-105356250I0J-243750D01*
G01*
X150700000Y-105843750D01*
G75*
G02*
X150456250Y-106087500I-243750J0D01*
G01*
G37*
G04 #@! TD*
G04 #@! TO.C,R507*
G36*
G01*
X174010000Y-105827500D02*
X174010000Y-106172500D01*
G75*
G02*
X173862500Y-106320000I-147500J0D01*
G01*
X173567500Y-106320000D01*
G75*
G02*
X173420000Y-106172500I0J147500D01*
G01*
X173420000Y-105827500D01*
G75*
G02*
X173567500Y-105680000I147500J0D01*
G01*
X173862500Y-105680000D01*
G75*
G02*
X174010000Y-105827500I0J-147500D01*
G01*
G37*
G36*
G01*
X174980000Y-105827500D02*
X174980000Y-106172500D01*
G75*
G02*
X174832500Y-106320000I-147500J0D01*
G01*
X174537500Y-106320000D01*
G75*
G02*
X174390000Y-106172500I0J147500D01*
G01*
X174390000Y-105827500D01*
G75*
G02*
X174537500Y-105680000I147500J0D01*
G01*
X174832500Y-105680000D01*
G75*
G02*
X174980000Y-105827500I0J-147500D01*
G01*
G37*
G04 #@! TD*
G04 #@! TO.C,R506*
G36*
G01*
X164225000Y-97727500D02*
X164225000Y-98072500D01*
G75*
G02*
X164077500Y-98220000I-147500J0D01*
G01*
X163782500Y-98220000D01*
G75*
G02*
X163635000Y-98072500I0J147500D01*
G01*
X163635000Y-97727500D01*
G75*
G02*
X163782500Y-97580000I147500J0D01*
G01*
X164077500Y-97580000D01*
G75*
G02*
X164225000Y-97727500I0J-147500D01*
G01*
G37*
G36*
G01*
X165195000Y-97727500D02*
X165195000Y-98072500D01*
G75*
G02*
X165047500Y-98220000I-147500J0D01*
G01*
X164752500Y-98220000D01*
G75*
G02*
X164605000Y-98072500I0J147500D01*
G01*
X164605000Y-97727500D01*
G75*
G02*
X164752500Y-97580000I147500J0D01*
G01*
X165047500Y-97580000D01*
G75*
G02*
X165195000Y-97727500I0J-147500D01*
G01*
G37*
G04 #@! TD*
G04 #@! TO.C,R505*
G36*
G01*
X163172500Y-103895000D02*
X162827500Y-103895000D01*
G75*
G02*
X162680000Y-103747500I0J147500D01*
G01*
X162680000Y-103452500D01*
G75*
G02*
X162827500Y-103305000I147500J0D01*
G01*
X163172500Y-103305000D01*
G75*
G02*
X163320000Y-103452500I0J-147500D01*
G01*
X163320000Y-103747500D01*
G75*
G02*
X163172500Y-103895000I-147500J0D01*
G01*
G37*
G36*
G01*
X163172500Y-104865000D02*
X162827500Y-104865000D01*
G75*
G02*
X162680000Y-104717500I0J147500D01*
G01*
X162680000Y-104422500D01*
G75*
G02*
X162827500Y-104275000I147500J0D01*
G01*
X163172500Y-104275000D01*
G75*
G02*
X163320000Y-104422500I0J-147500D01*
G01*
X163320000Y-104717500D01*
G75*
G02*
X163172500Y-104865000I-147500J0D01*
G01*
G37*
G04 #@! TD*
G04 #@! TO.C,R504*
G36*
G01*
X181395000Y-102927500D02*
X181395000Y-103272500D01*
G75*
G02*
X181247500Y-103420000I-147500J0D01*
G01*
X180952500Y-103420000D01*
G75*
G02*
X180805000Y-103272500I0J147500D01*
G01*
X180805000Y-102927500D01*
G75*
G02*
X180952500Y-102780000I147500J0D01*
G01*
X181247500Y-102780000D01*
G75*
G02*
X181395000Y-102927500I0J-147500D01*
G01*
G37*
G36*
G01*
X182365000Y-102927500D02*
X182365000Y-103272500D01*
G75*
G02*
X182217500Y-103420000I-147500J0D01*
G01*
X181922500Y-103420000D01*
G75*
G02*
X181775000Y-103272500I0J147500D01*
G01*
X181775000Y-102927500D01*
G75*
G02*
X181922500Y-102780000I147500J0D01*
G01*
X182217500Y-102780000D01*
G75*
G02*
X182365000Y-102927500I0J-147500D01*
G01*
G37*
G04 #@! TD*
G04 #@! TO.C,R503*
G36*
G01*
X187472500Y-104525000D02*
X187127500Y-104525000D01*
G75*
G02*
X186980000Y-104377500I0J147500D01*
G01*
X186980000Y-104082500D01*
G75*
G02*
X187127500Y-103935000I147500J0D01*
G01*
X187472500Y-103935000D01*
G75*
G02*
X187620000Y-104082500I0J-147500D01*
G01*
X187620000Y-104377500D01*
G75*
G02*
X187472500Y-104525000I-147500J0D01*
G01*
G37*
G36*
G01*
X187472500Y-105495000D02*
X187127500Y-105495000D01*
G75*
G02*
X186980000Y-105347500I0J147500D01*
G01*
X186980000Y-105052500D01*
G75*
G02*
X187127500Y-104905000I147500J0D01*
G01*
X187472500Y-104905000D01*
G75*
G02*
X187620000Y-105052500I0J-147500D01*
G01*
X187620000Y-105347500D01*
G75*
G02*
X187472500Y-105495000I-147500J0D01*
G01*
G37*
G04 #@! TD*
G04 #@! TO.C,R502*
G36*
G01*
X188572500Y-104525000D02*
X188227500Y-104525000D01*
G75*
G02*
X188080000Y-104377500I0J147500D01*
G01*
X188080000Y-104082500D01*
G75*
G02*
X188227500Y-103935000I147500J0D01*
G01*
X188572500Y-103935000D01*
G75*
G02*
X188720000Y-104082500I0J-147500D01*
G01*
X188720000Y-104377500D01*
G75*
G02*
X188572500Y-104525000I-147500J0D01*
G01*
G37*
G36*
G01*
X188572500Y-105495000D02*
X188227500Y-105495000D01*
G75*
G02*
X188080000Y-105347500I0J147500D01*
G01*
X188080000Y-105052500D01*
G75*
G02*
X188227500Y-104905000I147500J0D01*
G01*
X188572500Y-104905000D01*
G75*
G02*
X188720000Y-105052500I0J-147500D01*
G01*
X188720000Y-105347500D01*
G75*
G02*
X188572500Y-105495000I-147500J0D01*
G01*
G37*
G04 #@! TD*
G04 #@! TO.C,R501*
G36*
G01*
X189705000Y-102072500D02*
X189705000Y-101727500D01*
G75*
G02*
X189852500Y-101580000I147500J0D01*
G01*
X190147500Y-101580000D01*
G75*
G02*
X190295000Y-101727500I0J-147500D01*
G01*
X190295000Y-102072500D01*
G75*
G02*
X190147500Y-102220000I-147500J0D01*
G01*
X189852500Y-102220000D01*
G75*
G02*
X189705000Y-102072500I0J147500D01*
G01*
G37*
G36*
G01*
X188735000Y-102072500D02*
X188735000Y-101727500D01*
G75*
G02*
X188882500Y-101580000I147500J0D01*
G01*
X189177500Y-101580000D01*
G75*
G02*
X189325000Y-101727500I0J-147500D01*
G01*
X189325000Y-102072500D01*
G75*
G02*
X189177500Y-102220000I-147500J0D01*
G01*
X188882500Y-102220000D01*
G75*
G02*
X188735000Y-102072500I0J147500D01*
G01*
G37*
G04 #@! TD*
G04 #@! TO.C,R404*
G36*
G01*
X145243750Y-103837500D02*
X145756250Y-103837500D01*
G75*
G02*
X145975000Y-104056250I0J-218750D01*
G01*
X145975000Y-104493750D01*
G75*
G02*
X145756250Y-104712500I-218750J0D01*
G01*
X145243750Y-104712500D01*
G75*
G02*
X145025000Y-104493750I0J218750D01*
G01*
X145025000Y-104056250D01*
G75*
G02*
X145243750Y-103837500I218750J0D01*
G01*
G37*
G36*
G01*
X145243750Y-102262500D02*
X145756250Y-102262500D01*
G75*
G02*
X145975000Y-102481250I0J-218750D01*
G01*
X145975000Y-102918750D01*
G75*
G02*
X145756250Y-103137500I-218750J0D01*
G01*
X145243750Y-103137500D01*
G75*
G02*
X145025000Y-102918750I0J218750D01*
G01*
X145025000Y-102481250D01*
G75*
G02*
X145243750Y-102262500I218750J0D01*
G01*
G37*
G04 #@! TD*
G04 #@! TO.C,R403*
G36*
G01*
X145243750Y-100662500D02*
X145756250Y-100662500D01*
G75*
G02*
X145975000Y-100881250I0J-218750D01*
G01*
X145975000Y-101318750D01*
G75*
G02*
X145756250Y-101537500I-218750J0D01*
G01*
X145243750Y-101537500D01*
G75*
G02*
X145025000Y-101318750I0J218750D01*
G01*
X145025000Y-100881250D01*
G75*
G02*
X145243750Y-100662500I218750J0D01*
G01*
G37*
G36*
G01*
X145243750Y-99087500D02*
X145756250Y-99087500D01*
G75*
G02*
X145975000Y-99306250I0J-218750D01*
G01*
X145975000Y-99743750D01*
G75*
G02*
X145756250Y-99962500I-218750J0D01*
G01*
X145243750Y-99962500D01*
G75*
G02*
X145025000Y-99743750I0J218750D01*
G01*
X145025000Y-99306250D01*
G75*
G02*
X145243750Y-99087500I218750J0D01*
G01*
G37*
G04 #@! TD*
G04 #@! TO.C,R402*
G36*
G01*
X143643750Y-99050000D02*
X144156250Y-99050000D01*
G75*
G02*
X144375000Y-99268750I0J-218750D01*
G01*
X144375000Y-99706250D01*
G75*
G02*
X144156250Y-99925000I-218750J0D01*
G01*
X143643750Y-99925000D01*
G75*
G02*
X143425000Y-99706250I0J218750D01*
G01*
X143425000Y-99268750D01*
G75*
G02*
X143643750Y-99050000I218750J0D01*
G01*
G37*
G36*
G01*
X143643750Y-97475000D02*
X144156250Y-97475000D01*
G75*
G02*
X144375000Y-97693750I0J-218750D01*
G01*
X144375000Y-98131250D01*
G75*
G02*
X144156250Y-98350000I-218750J0D01*
G01*
X143643750Y-98350000D01*
G75*
G02*
X143425000Y-98131250I0J218750D01*
G01*
X143425000Y-97693750D01*
G75*
G02*
X143643750Y-97475000I218750J0D01*
G01*
G37*
G04 #@! TD*
G04 #@! TO.C,R401*
G36*
G01*
X142327500Y-100190000D02*
X142672500Y-100190000D01*
G75*
G02*
X142820000Y-100337500I0J-147500D01*
G01*
X142820000Y-100632500D01*
G75*
G02*
X142672500Y-100780000I-147500J0D01*
G01*
X142327500Y-100780000D01*
G75*
G02*
X142180000Y-100632500I0J147500D01*
G01*
X142180000Y-100337500D01*
G75*
G02*
X142327500Y-100190000I147500J0D01*
G01*
G37*
G36*
G01*
X142327500Y-99220000D02*
X142672500Y-99220000D01*
G75*
G02*
X142820000Y-99367500I0J-147500D01*
G01*
X142820000Y-99662500D01*
G75*
G02*
X142672500Y-99810000I-147500J0D01*
G01*
X142327500Y-99810000D01*
G75*
G02*
X142180000Y-99662500I0J147500D01*
G01*
X142180000Y-99367500D01*
G75*
G02*
X142327500Y-99220000I147500J0D01*
G01*
G37*
G04 #@! TD*
G04 #@! TO.C,R308*
G36*
G01*
X154372500Y-96695000D02*
X154027500Y-96695000D01*
G75*
G02*
X153880000Y-96547500I0J147500D01*
G01*
X153880000Y-96252500D01*
G75*
G02*
X154027500Y-96105000I147500J0D01*
G01*
X154372500Y-96105000D01*
G75*
G02*
X154520000Y-96252500I0J-147500D01*
G01*
X154520000Y-96547500D01*
G75*
G02*
X154372500Y-96695000I-147500J0D01*
G01*
G37*
G36*
G01*
X154372500Y-97665000D02*
X154027500Y-97665000D01*
G75*
G02*
X153880000Y-97517500I0J147500D01*
G01*
X153880000Y-97222500D01*
G75*
G02*
X154027500Y-97075000I147500J0D01*
G01*
X154372500Y-97075000D01*
G75*
G02*
X154520000Y-97222500I0J-147500D01*
G01*
X154520000Y-97517500D01*
G75*
G02*
X154372500Y-97665000I-147500J0D01*
G01*
G37*
G04 #@! TD*
G04 #@! TO.C,R307*
G36*
G01*
X154372500Y-94695000D02*
X154027500Y-94695000D01*
G75*
G02*
X153880000Y-94547500I0J147500D01*
G01*
X153880000Y-94252500D01*
G75*
G02*
X154027500Y-94105000I147500J0D01*
G01*
X154372500Y-94105000D01*
G75*
G02*
X154520000Y-94252500I0J-147500D01*
G01*
X154520000Y-94547500D01*
G75*
G02*
X154372500Y-94695000I-147500J0D01*
G01*
G37*
G36*
G01*
X154372500Y-95665000D02*
X154027500Y-95665000D01*
G75*
G02*
X153880000Y-95517500I0J147500D01*
G01*
X153880000Y-95222500D01*
G75*
G02*
X154027500Y-95075000I147500J0D01*
G01*
X154372500Y-95075000D01*
G75*
G02*
X154520000Y-95222500I0J-147500D01*
G01*
X154520000Y-95517500D01*
G75*
G02*
X154372500Y-95665000I-147500J0D01*
G01*
G37*
G04 #@! TD*
G04 #@! TO.C,R306*
G36*
G01*
X150627500Y-92005000D02*
X150972500Y-92005000D01*
G75*
G02*
X151120000Y-92152500I0J-147500D01*
G01*
X151120000Y-92447500D01*
G75*
G02*
X150972500Y-92595000I-147500J0D01*
G01*
X150627500Y-92595000D01*
G75*
G02*
X150480000Y-92447500I0J147500D01*
G01*
X150480000Y-92152500D01*
G75*
G02*
X150627500Y-92005000I147500J0D01*
G01*
G37*
G36*
G01*
X150627500Y-91035000D02*
X150972500Y-91035000D01*
G75*
G02*
X151120000Y-91182500I0J-147500D01*
G01*
X151120000Y-91477500D01*
G75*
G02*
X150972500Y-91625000I-147500J0D01*
G01*
X150627500Y-91625000D01*
G75*
G02*
X150480000Y-91477500I0J147500D01*
G01*
X150480000Y-91182500D01*
G75*
G02*
X150627500Y-91035000I147500J0D01*
G01*
G37*
G04 #@! TD*
G04 #@! TO.C,R305*
G36*
G01*
X150627500Y-94105000D02*
X150972500Y-94105000D01*
G75*
G02*
X151120000Y-94252500I0J-147500D01*
G01*
X151120000Y-94547500D01*
G75*
G02*
X150972500Y-94695000I-147500J0D01*
G01*
X150627500Y-94695000D01*
G75*
G02*
X150480000Y-94547500I0J147500D01*
G01*
X150480000Y-94252500D01*
G75*
G02*
X150627500Y-94105000I147500J0D01*
G01*
G37*
G36*
G01*
X150627500Y-93135000D02*
X150972500Y-93135000D01*
G75*
G02*
X151120000Y-93282500I0J-147500D01*
G01*
X151120000Y-93577500D01*
G75*
G02*
X150972500Y-93725000I-147500J0D01*
G01*
X150627500Y-93725000D01*
G75*
G02*
X150480000Y-93577500I0J147500D01*
G01*
X150480000Y-93282500D01*
G75*
G02*
X150627500Y-93135000I147500J0D01*
G01*
G37*
G04 #@! TD*
G04 #@! TO.C,R304*
G36*
G01*
X154027500Y-89605000D02*
X154372500Y-89605000D01*
G75*
G02*
X154520000Y-89752500I0J-147500D01*
G01*
X154520000Y-90047500D01*
G75*
G02*
X154372500Y-90195000I-147500J0D01*
G01*
X154027500Y-90195000D01*
G75*
G02*
X153880000Y-90047500I0J147500D01*
G01*
X153880000Y-89752500D01*
G75*
G02*
X154027500Y-89605000I147500J0D01*
G01*
G37*
G36*
G01*
X154027500Y-88635000D02*
X154372500Y-88635000D01*
G75*
G02*
X154520000Y-88782500I0J-147500D01*
G01*
X154520000Y-89077500D01*
G75*
G02*
X154372500Y-89225000I-147500J0D01*
G01*
X154027500Y-89225000D01*
G75*
G02*
X153880000Y-89077500I0J147500D01*
G01*
X153880000Y-88782500D01*
G75*
G02*
X154027500Y-88635000I147500J0D01*
G01*
G37*
G04 #@! TD*
G04 #@! TO.C,R303*
G36*
G01*
X146443750Y-91862500D02*
X146956250Y-91862500D01*
G75*
G02*
X147175000Y-92081250I0J-218750D01*
G01*
X147175000Y-92518750D01*
G75*
G02*
X146956250Y-92737500I-218750J0D01*
G01*
X146443750Y-92737500D01*
G75*
G02*
X146225000Y-92518750I0J218750D01*
G01*
X146225000Y-92081250D01*
G75*
G02*
X146443750Y-91862500I218750J0D01*
G01*
G37*
G36*
G01*
X146443750Y-90287500D02*
X146956250Y-90287500D01*
G75*
G02*
X147175000Y-90506250I0J-218750D01*
G01*
X147175000Y-90943750D01*
G75*
G02*
X146956250Y-91162500I-218750J0D01*
G01*
X146443750Y-91162500D01*
G75*
G02*
X146225000Y-90943750I0J218750D01*
G01*
X146225000Y-90506250D01*
G75*
G02*
X146443750Y-90287500I218750J0D01*
G01*
G37*
G04 #@! TD*
G04 #@! TO.C,R302*
G36*
G01*
X146527500Y-89175000D02*
X146872500Y-89175000D01*
G75*
G02*
X147020000Y-89322500I0J-147500D01*
G01*
X147020000Y-89617500D01*
G75*
G02*
X146872500Y-89765000I-147500J0D01*
G01*
X146527500Y-89765000D01*
G75*
G02*
X146380000Y-89617500I0J147500D01*
G01*
X146380000Y-89322500D01*
G75*
G02*
X146527500Y-89175000I147500J0D01*
G01*
G37*
G36*
G01*
X146527500Y-88205000D02*
X146872500Y-88205000D01*
G75*
G02*
X147020000Y-88352500I0J-147500D01*
G01*
X147020000Y-88647500D01*
G75*
G02*
X146872500Y-88795000I-147500J0D01*
G01*
X146527500Y-88795000D01*
G75*
G02*
X146380000Y-88647500I0J147500D01*
G01*
X146380000Y-88352500D01*
G75*
G02*
X146527500Y-88205000I147500J0D01*
G01*
G37*
G04 #@! TD*
G04 #@! TO.C,R301*
G36*
G01*
X145375000Y-88672500D02*
X145375000Y-88327500D01*
G75*
G02*
X145522500Y-88180000I147500J0D01*
G01*
X145817500Y-88180000D01*
G75*
G02*
X145965000Y-88327500I0J-147500D01*
G01*
X145965000Y-88672500D01*
G75*
G02*
X145817500Y-88820000I-147500J0D01*
G01*
X145522500Y-88820000D01*
G75*
G02*
X145375000Y-88672500I0J147500D01*
G01*
G37*
G36*
G01*
X144405000Y-88672500D02*
X144405000Y-88327500D01*
G75*
G02*
X144552500Y-88180000I147500J0D01*
G01*
X144847500Y-88180000D01*
G75*
G02*
X144995000Y-88327500I0J-147500D01*
G01*
X144995000Y-88672500D01*
G75*
G02*
X144847500Y-88820000I-147500J0D01*
G01*
X144552500Y-88820000D01*
G75*
G02*
X144405000Y-88672500I0J147500D01*
G01*
G37*
G04 #@! TD*
G04 #@! TO.C,R207*
G36*
G01*
X169227500Y-87505000D02*
X169572500Y-87505000D01*
G75*
G02*
X169720000Y-87652500I0J-147500D01*
G01*
X169720000Y-87947500D01*
G75*
G02*
X169572500Y-88095000I-147500J0D01*
G01*
X169227500Y-88095000D01*
G75*
G02*
X169080000Y-87947500I0J147500D01*
G01*
X169080000Y-87652500D01*
G75*
G02*
X169227500Y-87505000I147500J0D01*
G01*
G37*
G36*
G01*
X169227500Y-86535000D02*
X169572500Y-86535000D01*
G75*
G02*
X169720000Y-86682500I0J-147500D01*
G01*
X169720000Y-86977500D01*
G75*
G02*
X169572500Y-87125000I-147500J0D01*
G01*
X169227500Y-87125000D01*
G75*
G02*
X169080000Y-86977500I0J147500D01*
G01*
X169080000Y-86682500D01*
G75*
G02*
X169227500Y-86535000I147500J0D01*
G01*
G37*
G04 #@! TD*
G04 #@! TO.C,R206*
G36*
G01*
X170327500Y-87505000D02*
X170672500Y-87505000D01*
G75*
G02*
X170820000Y-87652500I0J-147500D01*
G01*
X170820000Y-87947500D01*
G75*
G02*
X170672500Y-88095000I-147500J0D01*
G01*
X170327500Y-88095000D01*
G75*
G02*
X170180000Y-87947500I0J147500D01*
G01*
X170180000Y-87652500D01*
G75*
G02*
X170327500Y-87505000I147500J0D01*
G01*
G37*
G36*
G01*
X170327500Y-86535000D02*
X170672500Y-86535000D01*
G75*
G02*
X170820000Y-86682500I0J-147500D01*
G01*
X170820000Y-86977500D01*
G75*
G02*
X170672500Y-87125000I-147500J0D01*
G01*
X170327500Y-87125000D01*
G75*
G02*
X170180000Y-86977500I0J147500D01*
G01*
X170180000Y-86682500D01*
G75*
G02*
X170327500Y-86535000I147500J0D01*
G01*
G37*
G04 #@! TD*
G04 #@! TO.C,R205*
G36*
G01*
X142395000Y-86527500D02*
X142395000Y-86872500D01*
G75*
G02*
X142247500Y-87020000I-147500J0D01*
G01*
X141952500Y-87020000D01*
G75*
G02*
X141805000Y-86872500I0J147500D01*
G01*
X141805000Y-86527500D01*
G75*
G02*
X141952500Y-86380000I147500J0D01*
G01*
X142247500Y-86380000D01*
G75*
G02*
X142395000Y-86527500I0J-147500D01*
G01*
G37*
G36*
G01*
X143365000Y-86527500D02*
X143365000Y-86872500D01*
G75*
G02*
X143217500Y-87020000I-147500J0D01*
G01*
X142922500Y-87020000D01*
G75*
G02*
X142775000Y-86872500I0J147500D01*
G01*
X142775000Y-86527500D01*
G75*
G02*
X142922500Y-86380000I147500J0D01*
G01*
X143217500Y-86380000D01*
G75*
G02*
X143365000Y-86527500I0J-147500D01*
G01*
G37*
G04 #@! TD*
G04 #@! TO.C,R203*
G36*
G01*
X142395000Y-84427500D02*
X142395000Y-84772500D01*
G75*
G02*
X142247500Y-84920000I-147500J0D01*
G01*
X141952500Y-84920000D01*
G75*
G02*
X141805000Y-84772500I0J147500D01*
G01*
X141805000Y-84427500D01*
G75*
G02*
X141952500Y-84280000I147500J0D01*
G01*
X142247500Y-84280000D01*
G75*
G02*
X142395000Y-84427500I0J-147500D01*
G01*
G37*
G36*
G01*
X143365000Y-84427500D02*
X143365000Y-84772500D01*
G75*
G02*
X143217500Y-84920000I-147500J0D01*
G01*
X142922500Y-84920000D01*
G75*
G02*
X142775000Y-84772500I0J147500D01*
G01*
X142775000Y-84427500D01*
G75*
G02*
X142922500Y-84280000I147500J0D01*
G01*
X143217500Y-84280000D01*
G75*
G02*
X143365000Y-84427500I0J-147500D01*
G01*
G37*
G04 #@! TD*
G04 #@! TO.C,R202*
G36*
G01*
X155772500Y-89225000D02*
X155427500Y-89225000D01*
G75*
G02*
X155280000Y-89077500I0J147500D01*
G01*
X155280000Y-88782500D01*
G75*
G02*
X155427500Y-88635000I147500J0D01*
G01*
X155772500Y-88635000D01*
G75*
G02*
X155920000Y-88782500I0J-147500D01*
G01*
X155920000Y-89077500D01*
G75*
G02*
X155772500Y-89225000I-147500J0D01*
G01*
G37*
G36*
G01*
X155772500Y-90195000D02*
X155427500Y-90195000D01*
G75*
G02*
X155280000Y-90047500I0J147500D01*
G01*
X155280000Y-89752500D01*
G75*
G02*
X155427500Y-89605000I147500J0D01*
G01*
X155772500Y-89605000D01*
G75*
G02*
X155920000Y-89752500I0J-147500D01*
G01*
X155920000Y-90047500D01*
G75*
G02*
X155772500Y-90195000I-147500J0D01*
G01*
G37*
G04 #@! TD*
G04 #@! TO.C,R201*
G36*
G01*
X170027500Y-93305000D02*
X170372500Y-93305000D01*
G75*
G02*
X170520000Y-93452500I0J-147500D01*
G01*
X170520000Y-93747500D01*
G75*
G02*
X170372500Y-93895000I-147500J0D01*
G01*
X170027500Y-93895000D01*
G75*
G02*
X169880000Y-93747500I0J147500D01*
G01*
X169880000Y-93452500D01*
G75*
G02*
X170027500Y-93305000I147500J0D01*
G01*
G37*
G36*
G01*
X170027500Y-92335000D02*
X170372500Y-92335000D01*
G75*
G02*
X170520000Y-92482500I0J-147500D01*
G01*
X170520000Y-92777500D01*
G75*
G02*
X170372500Y-92925000I-147500J0D01*
G01*
X170027500Y-92925000D01*
G75*
G02*
X169880000Y-92777500I0J147500D01*
G01*
X169880000Y-92482500D01*
G75*
G02*
X170027500Y-92335000I147500J0D01*
G01*
G37*
G04 #@! TD*
D13*
G04 #@! TO.C,Q502*
X166400000Y-104100000D03*
X164400000Y-105050000D03*
X164400000Y-103150000D03*
G04 #@! TD*
D14*
G04 #@! TO.C,Q501*
X164400000Y-101300000D03*
X163450000Y-99300000D03*
X165350000Y-99300000D03*
G04 #@! TD*
G04 #@! TO.C,Q301*
X151750000Y-87900000D03*
X152700000Y-89900000D03*
X150800000Y-89900000D03*
G04 #@! TD*
G04 #@! TO.C,D502*
G36*
G01*
X166843750Y-98887500D02*
X167756250Y-98887500D01*
G75*
G02*
X168000000Y-99131250I0J-243750D01*
G01*
X168000000Y-99618750D01*
G75*
G02*
X167756250Y-99862500I-243750J0D01*
G01*
X166843750Y-99862500D01*
G75*
G02*
X166600000Y-99618750I0J243750D01*
G01*
X166600000Y-99131250D01*
G75*
G02*
X166843750Y-98887500I243750J0D01*
G01*
G37*
G36*
G01*
X166843750Y-97012500D02*
X167756250Y-97012500D01*
G75*
G02*
X168000000Y-97256250I0J-243750D01*
G01*
X168000000Y-97743750D01*
G75*
G02*
X167756250Y-97987500I-243750J0D01*
G01*
X166843750Y-97987500D01*
G75*
G02*
X166600000Y-97743750I0J243750D01*
G01*
X166600000Y-97256250D01*
G75*
G02*
X166843750Y-97012500I243750J0D01*
G01*
G37*
G04 #@! TD*
G04 #@! TO.C,D501*
G36*
G01*
X190456250Y-103812500D02*
X189543750Y-103812500D01*
G75*
G02*
X189300000Y-103568750I0J243750D01*
G01*
X189300000Y-103081250D01*
G75*
G02*
X189543750Y-102837500I243750J0D01*
G01*
X190456250Y-102837500D01*
G75*
G02*
X190700000Y-103081250I0J-243750D01*
G01*
X190700000Y-103568750D01*
G75*
G02*
X190456250Y-103812500I-243750J0D01*
G01*
G37*
G36*
G01*
X190456250Y-105687500D02*
X189543750Y-105687500D01*
G75*
G02*
X189300000Y-105443750I0J243750D01*
G01*
X189300000Y-104956250D01*
G75*
G02*
X189543750Y-104712500I243750J0D01*
G01*
X190456250Y-104712500D01*
G75*
G02*
X190700000Y-104956250I0J-243750D01*
G01*
X190700000Y-105443750D01*
G75*
G02*
X190456250Y-105687500I-243750J0D01*
G01*
G37*
G04 #@! TD*
D15*
G04 #@! TO.C,D301*
X143900000Y-94400000D03*
X146700000Y-94400000D03*
G04 #@! TD*
G04 #@! TO.C,D203*
G36*
G01*
X140212500Y-87156250D02*
X140212500Y-86243750D01*
G75*
G02*
X140456250Y-86000000I243750J0D01*
G01*
X140943750Y-86000000D01*
G75*
G02*
X141187500Y-86243750I0J-243750D01*
G01*
X141187500Y-87156250D01*
G75*
G02*
X140943750Y-87400000I-243750J0D01*
G01*
X140456250Y-87400000D01*
G75*
G02*
X140212500Y-87156250I0J243750D01*
G01*
G37*
G36*
G01*
X138337500Y-87156250D02*
X138337500Y-86243750D01*
G75*
G02*
X138581250Y-86000000I243750J0D01*
G01*
X139068750Y-86000000D01*
G75*
G02*
X139312500Y-86243750I0J-243750D01*
G01*
X139312500Y-87156250D01*
G75*
G02*
X139068750Y-87400000I-243750J0D01*
G01*
X138581250Y-87400000D01*
G75*
G02*
X138337500Y-87156250I0J243750D01*
G01*
G37*
G04 #@! TD*
G04 #@! TO.C,D202*
G36*
G01*
X140212500Y-85056250D02*
X140212500Y-84143750D01*
G75*
G02*
X140456250Y-83900000I243750J0D01*
G01*
X140943750Y-83900000D01*
G75*
G02*
X141187500Y-84143750I0J-243750D01*
G01*
X141187500Y-85056250D01*
G75*
G02*
X140943750Y-85300000I-243750J0D01*
G01*
X140456250Y-85300000D01*
G75*
G02*
X140212500Y-85056250I0J243750D01*
G01*
G37*
G36*
G01*
X138337500Y-85056250D02*
X138337500Y-84143750D01*
G75*
G02*
X138581250Y-83900000I243750J0D01*
G01*
X139068750Y-83900000D01*
G75*
G02*
X139312500Y-84143750I0J-243750D01*
G01*
X139312500Y-85056250D01*
G75*
G02*
X139068750Y-85300000I-243750J0D01*
G01*
X138581250Y-85300000D01*
G75*
G02*
X138337500Y-85056250I0J243750D01*
G01*
G37*
G04 #@! TD*
G04 #@! TO.C,D201*
G36*
G01*
X155143750Y-86587500D02*
X156056250Y-86587500D01*
G75*
G02*
X156300000Y-86831250I0J-243750D01*
G01*
X156300000Y-87318750D01*
G75*
G02*
X156056250Y-87562500I-243750J0D01*
G01*
X155143750Y-87562500D01*
G75*
G02*
X154900000Y-87318750I0J243750D01*
G01*
X154900000Y-86831250D01*
G75*
G02*
X155143750Y-86587500I243750J0D01*
G01*
G37*
G36*
G01*
X155143750Y-84712500D02*
X156056250Y-84712500D01*
G75*
G02*
X156300000Y-84956250I0J-243750D01*
G01*
X156300000Y-85443750D01*
G75*
G02*
X156056250Y-85687500I-243750J0D01*
G01*
X155143750Y-85687500D01*
G75*
G02*
X154900000Y-85443750I0J243750D01*
G01*
X154900000Y-84956250D01*
G75*
G02*
X155143750Y-84712500I243750J0D01*
G01*
G37*
G04 #@! TD*
G04 #@! TO.C,C603*
G36*
G01*
X180772500Y-88825000D02*
X180427500Y-88825000D01*
G75*
G02*
X180280000Y-88677500I0J147500D01*
G01*
X180280000Y-88382500D01*
G75*
G02*
X180427500Y-88235000I147500J0D01*
G01*
X180772500Y-88235000D01*
G75*
G02*
X180920000Y-88382500I0J-147500D01*
G01*
X180920000Y-88677500D01*
G75*
G02*
X180772500Y-88825000I-147500J0D01*
G01*
G37*
G36*
G01*
X180772500Y-89795000D02*
X180427500Y-89795000D01*
G75*
G02*
X180280000Y-89647500I0J147500D01*
G01*
X180280000Y-89352500D01*
G75*
G02*
X180427500Y-89205000I147500J0D01*
G01*
X180772500Y-89205000D01*
G75*
G02*
X180920000Y-89352500I0J-147500D01*
G01*
X180920000Y-89647500D01*
G75*
G02*
X180772500Y-89795000I-147500J0D01*
G01*
G37*
G04 #@! TD*
G04 #@! TO.C,C602*
G36*
G01*
X179672500Y-88825000D02*
X179327500Y-88825000D01*
G75*
G02*
X179180000Y-88677500I0J147500D01*
G01*
X179180000Y-88382500D01*
G75*
G02*
X179327500Y-88235000I147500J0D01*
G01*
X179672500Y-88235000D01*
G75*
G02*
X179820000Y-88382500I0J-147500D01*
G01*
X179820000Y-88677500D01*
G75*
G02*
X179672500Y-88825000I-147500J0D01*
G01*
G37*
G36*
G01*
X179672500Y-89795000D02*
X179327500Y-89795000D01*
G75*
G02*
X179180000Y-89647500I0J147500D01*
G01*
X179180000Y-89352500D01*
G75*
G02*
X179327500Y-89205000I147500J0D01*
G01*
X179672500Y-89205000D01*
G75*
G02*
X179820000Y-89352500I0J-147500D01*
G01*
X179820000Y-89647500D01*
G75*
G02*
X179672500Y-89795000I-147500J0D01*
G01*
G37*
G04 #@! TD*
G04 #@! TO.C,C601*
G36*
G01*
X179327500Y-91175000D02*
X179672500Y-91175000D01*
G75*
G02*
X179820000Y-91322500I0J-147500D01*
G01*
X179820000Y-91617500D01*
G75*
G02*
X179672500Y-91765000I-147500J0D01*
G01*
X179327500Y-91765000D01*
G75*
G02*
X179180000Y-91617500I0J147500D01*
G01*
X179180000Y-91322500D01*
G75*
G02*
X179327500Y-91175000I147500J0D01*
G01*
G37*
G36*
G01*
X179327500Y-90205000D02*
X179672500Y-90205000D01*
G75*
G02*
X179820000Y-90352500I0J-147500D01*
G01*
X179820000Y-90647500D01*
G75*
G02*
X179672500Y-90795000I-147500J0D01*
G01*
X179327500Y-90795000D01*
G75*
G02*
X179180000Y-90647500I0J147500D01*
G01*
X179180000Y-90352500D01*
G75*
G02*
X179327500Y-90205000I147500J0D01*
G01*
G37*
G04 #@! TD*
G04 #@! TO.C,C502*
G36*
G01*
X178072500Y-101210000D02*
X177727500Y-101210000D01*
G75*
G02*
X177580000Y-101062500I0J147500D01*
G01*
X177580000Y-100767500D01*
G75*
G02*
X177727500Y-100620000I147500J0D01*
G01*
X178072500Y-100620000D01*
G75*
G02*
X178220000Y-100767500I0J-147500D01*
G01*
X178220000Y-101062500D01*
G75*
G02*
X178072500Y-101210000I-147500J0D01*
G01*
G37*
G36*
G01*
X178072500Y-102180000D02*
X177727500Y-102180000D01*
G75*
G02*
X177580000Y-102032500I0J147500D01*
G01*
X177580000Y-101737500D01*
G75*
G02*
X177727500Y-101590000I147500J0D01*
G01*
X178072500Y-101590000D01*
G75*
G02*
X178220000Y-101737500I0J-147500D01*
G01*
X178220000Y-102032500D01*
G75*
G02*
X178072500Y-102180000I-147500J0D01*
G01*
G37*
G04 #@! TD*
G04 #@! TO.C,C501*
G36*
G01*
X167972500Y-103425000D02*
X167627500Y-103425000D01*
G75*
G02*
X167480000Y-103277500I0J147500D01*
G01*
X167480000Y-102982500D01*
G75*
G02*
X167627500Y-102835000I147500J0D01*
G01*
X167972500Y-102835000D01*
G75*
G02*
X168120000Y-102982500I0J-147500D01*
G01*
X168120000Y-103277500D01*
G75*
G02*
X167972500Y-103425000I-147500J0D01*
G01*
G37*
G36*
G01*
X167972500Y-104395000D02*
X167627500Y-104395000D01*
G75*
G02*
X167480000Y-104247500I0J147500D01*
G01*
X167480000Y-103952500D01*
G75*
G02*
X167627500Y-103805000I147500J0D01*
G01*
X167972500Y-103805000D01*
G75*
G02*
X168120000Y-103952500I0J-147500D01*
G01*
X168120000Y-104247500D01*
G75*
G02*
X167972500Y-104395000I-147500J0D01*
G01*
G37*
G04 #@! TD*
M02*
