M48
; DRILL file {KiCad (5.1.6)-1} date 06/25/20 17:10:37
; FORMAT={-:-/ absolute / metric / decimal}
; #@! TF.CreationDate,2020-06-25T17:10:37+02:00
; #@! TF.GenerationSoftware,Kicad,Pcbnew,(5.1.6)-1
FMAT,2
METRIC
T1C0.400
T2C1.000
T3C2.700
%
G90
G05
T1
X140.0Y-110.0
X140.0Y-115.0
X140.0Y-120.0
X140.0Y-125.0
X141.0Y-90.0
X141.0Y-93.0
X141.0Y-97.0
X141.0Y-102.0
X142.5Y-101.4
X143.1Y-87.6
X144.0Y-90.0
X145.0Y-92.5
X145.0Y-110.0
X145.0Y-115.0
X145.0Y-120.0
X145.0Y-125.0
X145.0Y-130.0
X147.5Y-85.0
X147.5Y-100.0
X148.0Y-103.0
X149.0Y-93.0
X149.0Y-96.0
X149.3Y-101.2
X150.0Y-110.0
X150.0Y-115.0
X150.0Y-120.0
X150.0Y-125.0
X150.0Y-130.0
X152.4Y-101.2
X152.5Y-92.5
X153.0Y-86.0
X153.0Y-96.0
X154.0Y-106.0
X155.0Y-100.0
X155.0Y-103.0
X155.0Y-110.0
X155.0Y-115.0
X155.0Y-120.0
X155.0Y-125.0
X155.0Y-130.0
X157.0Y-106.0
X157.5Y-92.5
X157.5Y-97.5
X159.3Y-82.6
X160.0Y-100.0
X160.0Y-110.0
X160.0Y-115.0
X160.0Y-120.0
X160.0Y-125.0
X160.0Y-130.0
X160.055Y-84.9
X160.955Y-85.745
X161.0Y-106.0
X161.295Y-83.505
X162.0Y-94.0
X162.0Y-97.0
X162.0Y-104.6
X162.455Y-87.245
X164.0Y-86.0
X164.8Y-94.6
X164.9Y-96.6
X165.0Y-110.0
X165.0Y-115.0
X165.0Y-120.0
X165.0Y-125.0
X165.0Y-130.0
X166.0Y-87.0
X166.0Y-89.0
X166.0Y-94.0
X168.0Y-84.0
X168.0Y-89.0
X168.4Y-86.8
X169.0Y-91.0
X170.0Y-84.0
X170.0Y-95.0
X170.0Y-97.0
X170.0Y-110.0
X170.0Y-115.0
X170.0Y-120.0
X170.0Y-125.0
X170.5Y-88.9
X171.7Y-86.9
X172.0Y-82.8
X172.5Y-88.0
X173.0Y-97.0
X174.0Y-90.0
X175.0Y-110.0
X175.0Y-115.0
X175.0Y-120.0
X175.0Y-125.0
X175.4Y-83.8
X175.8Y-82.8
X176.0Y-91.0
X176.0Y-94.0
X176.0Y-97.0
X176.5Y-89.7
X177.0Y-86.0
X179.272Y-101.472
X180.0Y-110.0
X180.0Y-115.0
X180.0Y-120.0
X180.0Y-125.0
X180.5Y-95.2
X180.7Y-91.2
X181.0Y-98.0
X181.1Y-104.3
X181.295Y-101.995
X181.5Y-106.0
X181.755Y-85.645
X181.9Y-93.6
X181.916Y-94.6
X182.3Y-102.0
X185.0Y-85.0
X185.0Y-110.0
X185.0Y-115.0
X185.0Y-120.0
X185.0Y-125.0
X185.0Y-130.0
X186.0Y-103.0
X186.0Y-105.0
X188.2Y-101.9
X190.0Y-85.0
X190.0Y-90.0
X190.0Y-95.0
X190.0Y-100.0
X190.0Y-115.0
X190.0Y-120.0
X190.0Y-125.0
X190.0Y-130.0
X195.0Y-85.0
X195.0Y-90.0
X195.0Y-95.0
X195.0Y-100.0
X195.0Y-120.0
X195.0Y-125.0
X200.0Y-85.0
X200.0Y-90.0
X200.0Y-95.0
X200.0Y-100.0
X200.0Y-105.0
X200.0Y-125.0
T2
X198.0Y-109.5
X198.0Y-112.04
X198.0Y-114.58
X198.0Y-117.12
X198.0Y-119.66
X198.0Y-122.2
X138.7Y-94.42
X138.7Y-96.96
X138.7Y-99.5
X144.9Y-78.66
X144.9Y-81.2
X147.44Y-78.66
X147.44Y-81.2
X149.98Y-78.66
X149.98Y-81.2
X152.52Y-78.66
X152.52Y-81.2
X155.06Y-78.66
X155.06Y-81.2
X157.6Y-78.66
X157.6Y-81.2
X160.14Y-78.66
X160.14Y-81.2
X162.68Y-78.66
X162.68Y-81.2
X165.22Y-78.66
X165.22Y-81.2
X167.76Y-78.66
X167.76Y-81.2
X170.3Y-78.66
X170.3Y-81.2
X172.84Y-78.66
X172.84Y-81.2
X175.38Y-78.66
X175.38Y-81.2
X177.92Y-78.66
X177.92Y-81.2
X180.46Y-78.66
X180.46Y-81.2
X183.0Y-78.66
X183.0Y-81.2
X185.54Y-78.66
X185.54Y-81.2
X188.08Y-78.66
X188.08Y-81.2
X190.62Y-78.66
X190.62Y-81.2
X193.16Y-78.66
X193.16Y-81.2
X187.0Y-90.46
X187.0Y-93.0
X187.0Y-95.54
T3
X198.0Y-80.0
X198.0Y-129.0
X140.0Y-129.0
X140.0Y-80.0
T0
M30
