G04 #@! TF.GenerationSoftware,KiCad,Pcbnew,(5.1.6)-1*
G04 #@! TF.CreationDate,2020-06-25T17:10:26+02:00*
G04 #@! TF.ProjectId,plc-EV-rpi,706c632d-4556-42d7-9270-692e6b696361,rev?*
G04 #@! TF.SameCoordinates,Original*
G04 #@! TF.FileFunction,Soldermask,Bot*
G04 #@! TF.FilePolarity,Negative*
%FSLAX46Y46*%
G04 Gerber Fmt 4.6, Leading zero omitted, Abs format (unit mm)*
G04 Created by KiCad (PCBNEW (5.1.6)-1) date 2020-06-25 17:10:26*
%MOMM*%
%LPD*%
G01*
G04 APERTURE LIST*
%ADD10O,1.800000X1.800000*%
%ADD11R,1.800000X1.800000*%
%ADD12C,2.800000*%
G04 APERTURE END LIST*
D10*
G04 #@! TO.C,J601*
X187000000Y-90460000D03*
X187000000Y-93000000D03*
D11*
X187000000Y-95540000D03*
G04 #@! TD*
D10*
G04 #@! TO.C,J501*
X198000000Y-109500000D03*
X198000000Y-112040000D03*
X198000000Y-114580000D03*
X198000000Y-117120000D03*
X198000000Y-119660000D03*
D11*
X198000000Y-122200000D03*
G04 #@! TD*
D10*
G04 #@! TO.C,J201*
X193160000Y-78660000D03*
X193160000Y-81200000D03*
X190620000Y-78660000D03*
X190620000Y-81200000D03*
X188080000Y-78660000D03*
X188080000Y-81200000D03*
X185540000Y-78660000D03*
X185540000Y-81200000D03*
X183000000Y-78660000D03*
X183000000Y-81200000D03*
X180460000Y-78660000D03*
X180460000Y-81200000D03*
X177920000Y-78660000D03*
X177920000Y-81200000D03*
X175380000Y-78660000D03*
X175380000Y-81200000D03*
X172840000Y-78660000D03*
X172840000Y-81200000D03*
X170300000Y-78660000D03*
X170300000Y-81200000D03*
X167760000Y-78660000D03*
X167760000Y-81200000D03*
X165220000Y-78660000D03*
X165220000Y-81200000D03*
X162680000Y-78660000D03*
X162680000Y-81200000D03*
X160140000Y-78660000D03*
X160140000Y-81200000D03*
X157600000Y-78660000D03*
X157600000Y-81200000D03*
X155060000Y-78660000D03*
X155060000Y-81200000D03*
X152520000Y-78660000D03*
X152520000Y-81200000D03*
X149980000Y-78660000D03*
X149980000Y-81200000D03*
X147440000Y-78660000D03*
X147440000Y-81200000D03*
X144900000Y-78660000D03*
D11*
X144900000Y-81200000D03*
G04 #@! TD*
D10*
G04 #@! TO.C,J101*
X138700000Y-94420000D03*
X138700000Y-96960000D03*
D11*
X138700000Y-99500000D03*
G04 #@! TD*
D12*
G04 #@! TO.C,REF\u002A\u002A*
X140000000Y-129000000D03*
G04 #@! TD*
G04 #@! TO.C,REF\u002A\u002A*
X198000000Y-129000000D03*
G04 #@! TD*
G04 #@! TO.C,REF\u002A\u002A*
X198000000Y-80000000D03*
G04 #@! TD*
G04 #@! TO.C,REF\u002A\u002A*
X140000000Y-80000000D03*
G04 #@! TD*
M02*
