G04 #@! TF.FileFunction,Drawing*
%FSLAX46Y46*%
G04 Gerber Fmt 4.6, Leading zero omitted, Abs format (unit mm)*
G04 Created by KiCad (PCBNEW 4.0.2-4+6225~38~ubuntu14.04.1-stable) date Wed 24 Feb 2016 09:42:55 AM PST*
%MOMM*%
G01*
G04 APERTURE LIST*
%ADD10C,0.100000*%
%ADD11C,0.150000*%
G04 APERTURE END LIST*
D10*
D11*
X163600000Y-102520000D02*
X161200000Y-102520000D01*
X161200000Y-102520000D02*
X161200000Y-103920000D01*
X161200000Y-103920000D02*
X163600000Y-103920000D01*
X163600000Y-103920000D02*
X163600000Y-102520000D01*
X165800000Y-105520000D02*
X165800000Y-107520000D01*
X165800000Y-107520000D02*
X167800000Y-107520000D01*
X167800000Y-107520000D02*
X167800000Y-105520000D01*
X167800000Y-105520000D02*
X165800000Y-105520000D01*
X165300000Y-93520000D02*
X165300000Y-88720000D01*
X165300000Y-88720000D02*
X157600000Y-88720000D01*
X157600000Y-88720000D02*
X157600000Y-93520000D01*
X157600000Y-93520000D02*
X165300000Y-93520000D01*
X124300000Y-107520000D02*
X145800000Y-107520000D01*
X124300000Y-87520000D02*
X124300000Y-107520000D01*
X147800000Y-85520000D02*
X147800000Y-87520000D01*
X147800000Y-87520000D02*
X145800000Y-87520000D01*
X145800000Y-87520000D02*
X145800000Y-107520000D01*
X147800000Y-85520000D02*
X138300000Y-85520000D01*
X138300000Y-85520000D02*
X138300000Y-87520000D01*
X138300000Y-87520000D02*
X136300000Y-87520000D01*
X136300000Y-87520000D02*
X136300000Y-85520000D01*
X136300000Y-85520000D02*
X128300000Y-85520000D01*
X128300000Y-85520000D02*
X128300000Y-87520000D01*
X128300000Y-87520000D02*
X124300000Y-87520000D01*
X161860714Y-103559286D02*
X161860714Y-102809286D01*
X162289286Y-103559286D02*
X161967857Y-103130714D01*
X162289286Y-102809286D02*
X161860714Y-103237857D01*
X162753572Y-102809286D02*
X162896429Y-102809286D01*
X162967857Y-102845000D01*
X163039286Y-102916429D01*
X163075000Y-103059286D01*
X163075000Y-103309286D01*
X163039286Y-103452143D01*
X162967857Y-103523571D01*
X162896429Y-103559286D01*
X162753572Y-103559286D01*
X162682143Y-103523571D01*
X162610714Y-103452143D01*
X162575000Y-103309286D01*
X162575000Y-103059286D01*
X162610714Y-102916429D01*
X162682143Y-102845000D01*
X162753572Y-102809286D01*
X166210714Y-106859286D02*
X166210714Y-106109286D01*
X166639286Y-106859286D02*
X166317857Y-106430714D01*
X166639286Y-106109286D02*
X166210714Y-106537857D01*
X167103572Y-106109286D02*
X167246429Y-106109286D01*
X167317857Y-106145000D01*
X167389286Y-106216429D01*
X167425000Y-106359286D01*
X167425000Y-106609286D01*
X167389286Y-106752143D01*
X167317857Y-106823571D01*
X167246429Y-106859286D01*
X167103572Y-106859286D01*
X167032143Y-106823571D01*
X166960714Y-106752143D01*
X166925000Y-106609286D01*
X166925000Y-106359286D01*
X166960714Y-106216429D01*
X167032143Y-106145000D01*
X167103572Y-106109286D01*
X158204762Y-91472381D02*
X158204762Y-90472381D01*
X158776191Y-91472381D02*
X158347619Y-90900952D01*
X158776191Y-90472381D02*
X158204762Y-91043810D01*
X159204762Y-90948571D02*
X159538096Y-90948571D01*
X159680953Y-91472381D02*
X159204762Y-91472381D01*
X159204762Y-90472381D01*
X159680953Y-90472381D01*
X160109524Y-90948571D02*
X160442858Y-90948571D01*
X160585715Y-91472381D02*
X160109524Y-91472381D01*
X160109524Y-90472381D01*
X160585715Y-90472381D01*
X161014286Y-91472381D02*
X161014286Y-90472381D01*
X161395239Y-90472381D01*
X161490477Y-90520000D01*
X161538096Y-90567619D01*
X161585715Y-90662857D01*
X161585715Y-90805714D01*
X161538096Y-90900952D01*
X161490477Y-90948571D01*
X161395239Y-90996190D01*
X161014286Y-90996190D01*
X162204762Y-90472381D02*
X162395239Y-90472381D01*
X162490477Y-90520000D01*
X162585715Y-90615238D01*
X162633334Y-90805714D01*
X162633334Y-91139048D01*
X162585715Y-91329524D01*
X162490477Y-91424762D01*
X162395239Y-91472381D01*
X162204762Y-91472381D01*
X162109524Y-91424762D01*
X162014286Y-91329524D01*
X161966667Y-91139048D01*
X161966667Y-90805714D01*
X162014286Y-90615238D01*
X162109524Y-90520000D01*
X162204762Y-90472381D01*
X163061905Y-90472381D02*
X163061905Y-91281905D01*
X163109524Y-91377143D01*
X163157143Y-91424762D01*
X163252381Y-91472381D01*
X163442858Y-91472381D01*
X163538096Y-91424762D01*
X163585715Y-91377143D01*
X163633334Y-91281905D01*
X163633334Y-90472381D01*
X163966667Y-90472381D02*
X164538096Y-90472381D01*
X164252381Y-91472381D02*
X164252381Y-90472381D01*
X131954762Y-91972381D02*
X131954762Y-90972381D01*
X132526191Y-91972381D02*
X132097619Y-91400952D01*
X132526191Y-90972381D02*
X131954762Y-91543810D01*
X132954762Y-91448571D02*
X133288096Y-91448571D01*
X133430953Y-91972381D02*
X132954762Y-91972381D01*
X132954762Y-90972381D01*
X133430953Y-90972381D01*
X133859524Y-91448571D02*
X134192858Y-91448571D01*
X134335715Y-91972381D02*
X133859524Y-91972381D01*
X133859524Y-90972381D01*
X134335715Y-90972381D01*
X134764286Y-91972381D02*
X134764286Y-90972381D01*
X135145239Y-90972381D01*
X135240477Y-91020000D01*
X135288096Y-91067619D01*
X135335715Y-91162857D01*
X135335715Y-91305714D01*
X135288096Y-91400952D01*
X135240477Y-91448571D01*
X135145239Y-91496190D01*
X134764286Y-91496190D01*
X135954762Y-90972381D02*
X136145239Y-90972381D01*
X136240477Y-91020000D01*
X136335715Y-91115238D01*
X136383334Y-91305714D01*
X136383334Y-91639048D01*
X136335715Y-91829524D01*
X136240477Y-91924762D01*
X136145239Y-91972381D01*
X135954762Y-91972381D01*
X135859524Y-91924762D01*
X135764286Y-91829524D01*
X135716667Y-91639048D01*
X135716667Y-91305714D01*
X135764286Y-91115238D01*
X135859524Y-91020000D01*
X135954762Y-90972381D01*
X136811905Y-90972381D02*
X136811905Y-91781905D01*
X136859524Y-91877143D01*
X136907143Y-91924762D01*
X137002381Y-91972381D01*
X137192858Y-91972381D01*
X137288096Y-91924762D01*
X137335715Y-91877143D01*
X137383334Y-91781905D01*
X137383334Y-90972381D01*
X137716667Y-90972381D02*
X138288096Y-90972381D01*
X138002381Y-91972381D02*
X138002381Y-90972381D01*
M02*
