<?xml version="1.0" standalone="no"?>
 <!DOCTYPE svg PUBLIC "-//W3C//DTD SVG 1.1//EN" 
 "http://www.w3.org/Graphics/SVG/1.1/DTD/svg11.dtd"> 
<svg xmlns="http://www.w3.org/2000/svg" version="1.1" 
    width="6.19252cm" height="6.35cm" viewBox="0 0 24379 24999 ">
<title>SVG Picture created as PLC_Stamp_mini_2.svg date 2016/02/24 08:55:13 </title>
  <desc>Picture generated by Eeschema-SVG </desc>
<g style="fill:#000000; fill-opacity:1;stroke:#000000; stroke-opacity:1;
stroke-linecap:round; stroke-linejoin:round; "
 transform="translate(0 0) scale(1 1)">
</g>
<g style="fill:#000000; fill-opacity:0.0; 
stroke:#000000; stroke-width:-10; stroke-opacity:1; 
stroke-linecap:round; stroke-linejoin:round;">
</g>
<g style="fill:#000000; fill-opacity:0.0; 
stroke:#000000; stroke-width:60; stroke-opacity:1; 
stroke-linecap:round; stroke-linejoin:round;">
<rect x="4190" y="3500" width="16000" height="18000" rx="0" />
<path d="M4190 4500
L2190 4500
" />
<path d="M4970 4250
L4920 4230
L4850 4230
L4780 4250
L4730 4300
L4710 4350
L4690 4440
L4690 4510
L4710 4610
L4730 4650
L4780 4700
L4850 4730
L4900 4730
L4970 4700
L4990 4680
L4990 4510
L4900 4510
" />
<path d="M5210 4730
L5210 4230
L5400 4230
L5450 4250
L5470 4270
L5490 4320
L5490 4390
L5470 4440
L5450 4460
L5400 4490
L5210 4490
" />
<path d="M5710 4730
L5710 4230
" />
<path d="M6040 4230
L6140 4230
L6190 4250
L6230 4300
L6260 4390
L6260 4560
L6230 4650
L6190 4700
L6140 4730
L6040 4730
L6000 4700
L5950 4650
L5930 4560
L5930 4390
L5950 4300
L6000 4250
L6040 4230
" />
<path d="M6350 4770
L6730 4770
" />
<path d="M6940 4230
L6990 4230
L7040 4250
L7060 4270
L7090 4320
L7110 4420
L7110 4540
L7090 4630
L7060 4680
L7040 4700
L6990 4730
L6940 4730
L6900 4700
L6870 4680
L6850 4630
L6830 4540
L6830 4420
L6850 4320
L6870 4270
L6900 4250
L6940 4230
" />
<path d="M3330 4380
L3050 4380
" />
<path d="M3190 4380
L3190 3880
L3140 3950
L3090 4000
L3050 4020
" />
<path d="M4190 5500
L2190 5500
" />
<path d="M4970 5250
L4920 5230
L4850 5230
L4780 5250
L4730 5300
L4710 5350
L4690 5440
L4690 5510
L4710 5610
L4730 5650
L4780 5700
L4850 5730
L4900 5730
L4970 5700
L4990 5680
L4990 5510
L4900 5510
" />
<path d="M5210 5730
L5210 5230
L5400 5230
L5450 5250
L5470 5270
L5490 5320
L5490 5390
L5470 5440
L5450 5460
L5400 5490
L5210 5490
" />
<path d="M5710 5730
L5710 5230
" />
<path d="M6040 5230
L6140 5230
L6190 5250
L6230 5300
L6260 5390
L6260 5560
L6230 5650
L6190 5700
L6140 5730
L6040 5730
L6000 5700
L5950 5650
L5930 5560
L5930 5390
L5950 5300
L6000 5250
L6040 5230
" />
<path d="M6350 5770
L6730 5770
" />
<path d="M7110 5730
L6830 5730
" />
<path d="M6970 5730
L6970 5230
L6920 5300
L6870 5350
L6830 5370
" />
<path d="M3050 4920
L3070 4900
L3120 4880
L3240 4880
L3280 4900
L3310 4920
L3330 4970
L3330 5020
L3310 5090
L3020 5380
L3330 5380
" />
<path d="M4190 6500
L2190 6500
" />
<path d="M4970 6250
L4920 6230
L4850 6230
L4780 6250
L4730 6300
L4710 6350
L4690 6440
L4690 6510
L4710 6610
L4730 6650
L4780 6700
L4850 6730
L4900 6730
L4970 6700
L4990 6680
L4990 6510
L4900 6510
" />
<path d="M5210 6730
L5210 6230
L5400 6230
L5450 6250
L5470 6270
L5490 6320
L5490 6390
L5470 6440
L5450 6460
L5400 6490
L5210 6490
" />
<path d="M5710 6730
L5710 6230
" />
<path d="M6040 6230
L6140 6230
L6190 6250
L6230 6300
L6260 6390
L6260 6560
L6230 6650
L6190 6700
L6140 6730
L6040 6730
L6000 6700
L5950 6650
L5930 6560
L5930 6390
L5950 6300
L6000 6250
L6040 6230
" />
<path d="M6350 6770
L6730 6770
" />
<path d="M6830 6270
L6850 6250
L6900 6230
L7020 6230
L7060 6250
L7090 6270
L7110 6320
L7110 6370
L7090 6440
L6800 6730
L7110 6730
" />
<path d="M3020 5880
L3330 5880
L3160 6070
L3240 6070
L3280 6090
L3310 6110
L3330 6160
L3330 6280
L3310 6330
L3280 6350
L3240 6380
L3090 6380
L3050 6350
L3020 6330
" />
<path d="M4190 7500
L2190 7500
" />
<path d="M4970 7250
L4920 7230
L4850 7230
L4780 7250
L4730 7300
L4710 7350
L4690 7440
L4690 7510
L4710 7610
L4730 7650
L4780 7700
L4850 7730
L4900 7730
L4970 7700
L4990 7680
L4990 7510
L4900 7510
" />
<path d="M5210 7730
L5210 7230
L5400 7230
L5450 7250
L5470 7270
L5490 7320
L5490 7390
L5470 7440
L5450 7460
L5400 7490
L5210 7490
" />
<path d="M5710 7730
L5710 7230
" />
<path d="M6040 7230
L6140 7230
L6190 7250
L6230 7300
L6260 7390
L6260 7560
L6230 7650
L6190 7700
L6140 7730
L6040 7730
L6000 7700
L5950 7650
L5930 7560
L5930 7390
L5950 7300
L6000 7250
L6040 7230
" />
<path d="M6350 7770
L6730 7770
" />
<path d="M6800 7230
L7110 7230
L6940 7420
L7020 7420
L7060 7440
L7090 7460
L7110 7510
L7110 7630
L7090 7680
L7060 7700
L7020 7730
L6870 7730
L6830 7700
L6800 7680
" />
<path d="M3280 7040
L3280 7380
" />
<path d="M3160 6850
L3050 7210
L3350 7210
" />
<path d="M4190 8500
L2190 8500
" />
<path d="M4990 8730
L4830 8490
" />
<path d="M4710 8730
L4710 8230
L4900 8230
L4950 8250
L4970 8270
L4990 8320
L4990 8390
L4970 8440
L4950 8460
L4900 8490
L4710 8490
" />
<path d="M5210 8460
L5380 8460
" />
<path d="M5450 8730
L5210 8730
L5210 8230
L5450 8230
" />
<path d="M5640 8700
L5710 8730
L5830 8730
L5870 8700
L5900 8680
L5920 8630
L5920 8580
L5900 8540
L5870 8510
L5830 8490
L5730 8460
L5680 8440
L5660 8420
L5640 8370
L5640 8320
L5660 8270
L5680 8250
L5730 8230
L5850 8230
L5920 8250
" />
<path d="M6140 8460
L6310 8460
" />
<path d="M6380 8730
L6140 8730
L6140 8230
L6380 8230
" />
<path d="M6520 8230
L6800 8230
" />
<path d="M6660 8730
L6660 8230
" />
<path d="M6850 8770
L7230 8770
" />
<path d="M7590 8730
L7350 8730
L7350 8230
" />
<path d="M3310 7880
L3070 7880
L3050 8110
L3070 8090
L3120 8070
L3240 8070
L3280 8090
L3310 8110
L3330 8160
L3330 8280
L3310 8330
L3280 8350
L3240 8380
L3120 8380
L3070 8350
L3050 8330
" />
<path d="M4190 9500
L2190 9500
" />
<path d="M4690 9700
L4760 9730
L4880 9730
L4920 9700
L4950 9680
L4970 9630
L4970 9580
L4950 9540
L4920 9510
L4880 9490
L4780 9460
L4730 9440
L4710 9420
L4690 9370
L4690 9320
L4710 9270
L4730 9250
L4780 9230
L4900 9230
L4970 9250
" />
<path d="M5190 9460
L5360 9460
" />
<path d="M5430 9730
L5190 9730
L5190 9230
L5430 9230
" />
<path d="M5920 9730
L5760 9490
" />
<path d="M5640 9730
L5640 9230
L5830 9230
L5880 9250
L5900 9270
L5920 9320
L5920 9390
L5900 9440
L5880 9460
L5830 9490
L5640 9490
" />
<path d="M6140 9730
L6140 9230
" />
<path d="M6360 9580
L6590 9580
" />
<path d="M6310 9730
L6470 9230
L6640 9730
" />
<path d="M7050 9730
L6810 9730
L6810 9230
" />
<path d="M7090 9770
L7470 9770
" />
<path d="M7800 9390
L7800 9730
" />
<path d="M7680 9200
L7570 9560
L7870 9560
" />
<path d="M3280 8880
L3190 8880
L3140 8900
L3120 8920
L3070 9000
L3050 9090
L3050 9280
L3070 9330
L3090 9350
L3140 9380
L3240 9380
L3280 9350
L3310 9330
L3330 9280
L3330 9160
L3310 9110
L3280 9090
L3240 9070
L3140 9070
L3090 9090
L3070 9110
L3050 9160
" />
<path d="M4190 10500
L2190 10500
" />
<path d="M4690 10700
L4760 10730
L4880 10730
L4920 10700
L4950 10680
L4970 10630
L4970 10580
L4950 10540
L4920 10510
L4880 10490
L4780 10460
L4730 10440
L4710 10420
L4690 10370
L4690 10320
L4710 10270
L4730 10250
L4780 10230
L4900 10230
L4970 10250
" />
<path d="M5190 10460
L5360 10460
" />
<path d="M5430 10730
L5190 10730
L5190 10230
L5430 10230
" />
<path d="M5920 10730
L5760 10490
" />
<path d="M5640 10730
L5640 10230
L5830 10230
L5880 10250
L5900 10270
L5920 10320
L5920 10390
L5900 10440
L5880 10460
L5830 10490
L5640 10490
" />
<path d="M6140 10730
L6140 10230
" />
<path d="M6360 10580
L6590 10580
" />
<path d="M6310 10730
L6470 10230
L6640 10730
" />
<path d="M7050 10730
L6810 10730
L6810 10230
" />
<path d="M7090 10770
L7470 10770
" />
<path d="M7540 10230
L7850 10230
L7680 10420
L7760 10420
L7800 10440
L7830 10460
L7850 10510
L7850 10630
L7830 10680
L7800 10700
L7760 10730
L7610 10730
L7570 10700
L7540 10680
" />
<path d="M3020 9880
L3350 9880
L3140 10380
" />
<path d="M4190 11500
L2190 11500
" />
<path d="M4690 11700
L4760 11730
L4880 11730
L4920 11700
L4950 11680
L4970 11630
L4970 11580
L4950 11540
L4920 11510
L4880 11490
L4780 11460
L4730 11440
L4710 11420
L4690 11370
L4690 11320
L4710 11270
L4730 11250
L4780 11230
L4900 11230
L4970 11250
" />
<path d="M5190 11460
L5360 11460
" />
<path d="M5430 11730
L5190 11730
L5190 11230
L5430 11230
" />
<path d="M5920 11730
L5760 11490
" />
<path d="M5640 11730
L5640 11230
L5830 11230
L5880 11250
L5900 11270
L5920 11320
L5920 11390
L5900 11440
L5880 11460
L5830 11490
L5640 11490
" />
<path d="M6140 11730
L6140 11230
" />
<path d="M6360 11580
L6590 11580
" />
<path d="M6310 11730
L6470 11230
L6640 11730
" />
<path d="M7050 11730
L6810 11730
L6810 11230
" />
<path d="M7090 11770
L7470 11770
" />
<path d="M7570 11270
L7590 11250
L7640 11230
L7760 11230
L7800 11250
L7830 11270
L7850 11320
L7850 11370
L7830 11440
L7540 11730
L7850 11730
" />
<path d="M3140 11090
L3090 11070
L3070 11040
L3050 11000
L3050 10970
L3070 10920
L3090 10900
L3140 10880
L3240 10880
L3280 10900
L3310 10920
L3330 10970
L3330 11000
L3310 11040
L3280 11070
L3240 11090
L3140 11090
L3090 11110
L3070 11140
L3050 11190
L3050 11280
L3070 11330
L3090 11350
L3140 11380
L3240 11380
L3280 11350
L3310 11330
L3330 11280
L3330 11190
L3310 11140
L3280 11110
L3240 11090
" />
<path d="M4190 12500
L2190 12500
" />
<path d="M4690 12700
L4760 12730
L4880 12730
L4920 12700
L4950 12680
L4970 12630
L4970 12580
L4950 12540
L4920 12510
L4880 12490
L4780 12460
L4730 12440
L4710 12420
L4690 12370
L4690 12320
L4710 12270
L4730 12250
L4780 12230
L4900 12230
L4970 12250
" />
<path d="M5190 12460
L5360 12460
" />
<path d="M5430 12730
L5190 12730
L5190 12230
L5430 12230
" />
<path d="M5920 12730
L5760 12490
" />
<path d="M5640 12730
L5640 12230
L5830 12230
L5880 12250
L5900 12270
L5920 12320
L5920 12390
L5900 12440
L5880 12460
L5830 12490
L5640 12490
" />
<path d="M6140 12730
L6140 12230
" />
<path d="M6360 12580
L6590 12580
" />
<path d="M6310 12730
L6470 12230
L6640 12730
" />
<path d="M7050 12730
L6810 12730
L6810 12230
" />
<path d="M7090 12770
L7470 12770
" />
<path d="M7850 12730
L7570 12730
" />
<path d="M7710 12730
L7710 12230
L7660 12300
L7610 12350
L7570 12370
" />
<path d="M3090 12380
L3190 12380
L3240 12350
L3260 12330
L3310 12260
L3330 12160
L3330 11970
L3310 11920
L3280 11900
L3240 11880
L3140 11880
L3090 11900
L3070 11920
L3050 11970
L3050 12090
L3070 12140
L3090 12160
L3140 12190
L3240 12190
L3280 12160
L3310 12140
L3330 12090
" />
<path d="M4190 13500
L2190 13500
" />
<path d="M4690 13700
L4760 13730
L4880 13730
L4920 13700
L4950 13680
L4970 13630
L4970 13580
L4950 13540
L4920 13510
L4880 13490
L4780 13460
L4730 13440
L4710 13420
L4690 13370
L4690 13320
L4710 13270
L4730 13250
L4780 13230
L4900 13230
L4970 13250
" />
<path d="M5190 13460
L5360 13460
" />
<path d="M5430 13730
L5190 13730
L5190 13230
L5430 13230
" />
<path d="M5920 13730
L5760 13490
" />
<path d="M5640 13730
L5640 13230
L5830 13230
L5880 13250
L5900 13270
L5920 13320
L5920 13390
L5900 13440
L5880 13460
L5830 13490
L5640 13490
" />
<path d="M6140 13730
L6140 13230
" />
<path d="M6360 13580
L6590 13580
" />
<path d="M6310 13730
L6470 13230
L6640 13730
" />
<path d="M7050 13730
L6810 13730
L6810 13230
" />
<path d="M7090 13770
L7470 13770
" />
<path d="M7680 13230
L7730 13230
L7780 13250
L7800 13270
L7830 13320
L7850 13420
L7850 13540
L7830 13630
L7800 13680
L7780 13700
L7730 13730
L7680 13730
L7640 13700
L7610 13680
L7590 13630
L7570 13540
L7570 13420
L7590 13320
L7610 13270
L7640 13250
L7680 13230
" />
<path d="M3090 13380
L2810 13380
" />
<path d="M2950 13380
L2950 12880
L2900 12950
L2850 13000
L2810 13020
" />
<path d="M3400 12880
L3450 12880
L3500 12900
L3520 12920
L3550 12970
L3570 13070
L3570 13190
L3550 13280
L3520 13330
L3500 13350
L3450 13380
L3400 13380
L3360 13350
L3330 13330
L3310 13280
L3290 13190
L3290 13070
L3310 12970
L3330 12920
L3360 12900
L3400 12880
" />
<path d="M20190 15500
L22190 15500
" />
<path d="M18650 15250
L18600 15230
L18530 15230
L18460 15250
L18410 15300
L18390 15350
L18370 15440
L18370 15510
L18390 15610
L18410 15650
L18460 15700
L18530 15730
L18580 15730
L18650 15700
L18670 15680
L18670 15510
L18580 15510
" />
<path d="M18890 15730
L18890 15230
L19170 15730
L19170 15230
" />
<path d="M19410 15730
L19410 15230
L19530 15230
L19600 15250
L19650 15300
L19670 15350
L19690 15440
L19690 15510
L19670 15610
L19650 15650
L19600 15700
L19530 15730
L19410 15730
" />
<path d="M20810 14920
L20830 14900
L20880 14880
L21000 14880
L21040 14900
L21070 14920
L21090 14970
L21090 15020
L21070 15090
L20780 15380
L21090 15380
" />
<path d="M21400 14880
L21450 14880
L21500 14900
L21520 14920
L21550 14970
L21570 15070
L21570 15190
L21550 15280
L21520 15330
L21500 15350
L21450 15380
L21400 15380
L21360 15350
L21330 15330
L21310 15280
L21290 15190
L21290 15070
L21310 14970
L21330 14920
L21360 14900
L21400 14880
" />
<path d="M4190 14500
L2190 14500
" />
<path d="M4970 14250
L4920 14230
L4850 14230
L4780 14250
L4730 14300
L4710 14350
L4690 14440
L4690 14510
L4710 14610
L4730 14650
L4780 14700
L4850 14730
L4900 14730
L4970 14700
L4990 14680
L4990 14510
L4900 14510
" />
<path d="M5210 14730
L5210 14230
L5490 14730
L5490 14230
" />
<path d="M5730 14730
L5730 14230
L5850 14230
L5920 14250
L5970 14300
L5990 14350
L6010 14440
L6010 14510
L5990 14610
L5970 14650
L5920 14700
L5850 14730
L5730 14730
" />
<path d="M3090 14380
L2810 14380
" />
<path d="M2950 14380
L2950 13880
L2900 13950
L2850 14000
L2810 14020
" />
<path d="M3570 14380
L3290 14380
" />
<path d="M3430 14380
L3430 13880
L3380 13950
L3330 14000
L3290 14020
" />
<path d="M20190 13500
L22190 13500
" />
<path d="M18650 13250
L18600 13230
L18530 13230
L18460 13250
L18410 13300
L18390 13350
L18370 13440
L18370 13510
L18390 13610
L18410 13650
L18460 13700
L18530 13730
L18580 13730
L18650 13700
L18670 13680
L18670 13510
L18580 13510
" />
<path d="M18890 13730
L18890 13230
L19170 13730
L19170 13230
" />
<path d="M19410 13730
L19410 13230
L19530 13230
L19600 13250
L19650 13300
L19670 13350
L19690 13440
L19690 13510
L19670 13610
L19650 13650
L19600 13700
L19530 13730
L19410 13730
" />
<path d="M20810 12920
L20830 12900
L20880 12880
L21000 12880
L21040 12900
L21070 12920
L21090 12970
L21090 13020
L21070 13090
L20780 13380
L21090 13380
" />
<path d="M21570 13380
L21290 13380
" />
<path d="M21430 13380
L21430 12880
L21380 12950
L21330 13000
L21290 13020
" />
<path d="M4190 15500
L2190 15500
" />
<path d="M4640 15230
L4800 15730
L4970 15230
" />
<path d="M5140 15730
L5140 15230
L5260 15230
L5330 15250
L5380 15300
L5400 15350
L5420 15440
L5420 15510
L5400 15610
L5380 15650
L5330 15700
L5260 15730
L5140 15730
" />
<path d="M5640 15730
L5640 15230
L5760 15230
L5830 15250
L5880 15300
L5900 15350
L5920 15440
L5920 15510
L5900 15610
L5880 15650
L5830 15700
L5760 15730
L5640 15730
" />
<path d="M3090 15380
L2810 15380
" />
<path d="M2950 15380
L2950 14880
L2900 14950
L2850 15000
L2810 15020
" />
<path d="M3290 14920
L3310 14900
L3360 14880
L3480 14880
L3520 14900
L3550 14920
L3570 14970
L3570 15020
L3550 15090
L3260 15380
L3570 15380
" />
<path d="M20190 11500
L22190 11500
" />
<path d="M18650 11250
L18600 11230
L18530 11230
L18460 11250
L18410 11300
L18390 11350
L18370 11440
L18370 11510
L18390 11610
L18410 11650
L18460 11700
L18530 11730
L18580 11730
L18650 11700
L18670 11680
L18670 11510
L18580 11510
" />
<path d="M18890 11730
L18890 11230
L19170 11730
L19170 11230
" />
<path d="M19410 11730
L19410 11230
L19530 11230
L19600 11250
L19650 11300
L19670 11350
L19690 11440
L19690 11510
L19670 11610
L19650 11650
L19600 11700
L19530 11730
L19410 11730
" />
<path d="M20810 10920
L20830 10900
L20880 10880
L21000 10880
L21040 10900
L21070 10920
L21090 10970
L21090 11020
L21070 11090
L20780 11380
L21090 11380
" />
<path d="M21290 10920
L21310 10900
L21360 10880
L21480 10880
L21520 10900
L21550 10920
L21570 10970
L21570 11020
L21550 11090
L21260 11380
L21570 11380
" />
<path d="M4190 16500
L2190 16500
" />
<path d="M4660 16230
L4990 16230
L4660 16730
L4990 16730
" />
<path d="M5470 16680
L5450 16700
L5380 16730
L5330 16730
L5260 16700
L5210 16650
L5190 16610
L5170 16510
L5170 16440
L5190 16350
L5210 16300
L5260 16250
L5330 16230
L5380 16230
L5450 16250
L5470 16270
" />
<path d="M5570 16770
L5950 16770
" />
<path d="M6070 16730
L6070 16230
" />
<path d="M6310 16730
L6310 16230
L6590 16730
L6590 16230
" />
<path d="M3090 16380
L2810 16380
" />
<path d="M2950 16380
L2950 15880
L2900 15950
L2850 16000
L2810 16020
" />
<path d="M3260 15880
L3570 15880
L3400 16070
L3480 16070
L3520 16090
L3550 16110
L3570 16160
L3570 16280
L3550 16330
L3520 16350
L3480 16380
L3330 16380
L3290 16350
L3260 16330
" />
<path d="M20190 9500
L22190 9500
" />
<path d="M18650 9250
L18600 9230
L18530 9230
L18460 9250
L18410 9300
L18390 9350
L18370 9440
L18370 9510
L18390 9610
L18410 9650
L18460 9700
L18530 9730
L18580 9730
L18650 9700
L18670 9680
L18670 9510
L18580 9510
" />
<path d="M18890 9730
L18890 9230
L19170 9730
L19170 9230
" />
<path d="M19410 9730
L19410 9230
L19530 9230
L19600 9250
L19650 9300
L19670 9350
L19690 9440
L19690 9510
L19670 9610
L19650 9650
L19600 9700
L19530 9730
L19410 9730
" />
<path d="M20810 8920
L20830 8900
L20880 8880
L21000 8880
L21040 8900
L21070 8920
L21090 8970
L21090 9020
L21070 9090
L20780 9380
L21090 9380
" />
<path d="M21260 8880
L21570 8880
L21400 9070
L21480 9070
L21520 9090
L21550 9110
L21570 9160
L21570 9280
L21550 9330
L21520 9350
L21480 9380
L21330 9380
L21290 9350
L21260 9330
" />
<path d="M20190 7500
L22190 7500
" />
<path d="M18650 7250
L18600 7230
L18530 7230
L18460 7250
L18410 7300
L18390 7350
L18370 7440
L18370 7510
L18390 7610
L18410 7650
L18460 7700
L18530 7730
L18580 7730
L18650 7700
L18670 7680
L18670 7510
L18580 7510
" />
<path d="M18890 7730
L18890 7230
L19170 7730
L19170 7230
" />
<path d="M19410 7730
L19410 7230
L19530 7230
L19600 7250
L19650 7300
L19670 7350
L19690 7440
L19690 7510
L19670 7610
L19650 7650
L19600 7700
L19530 7730
L19410 7730
" />
<path d="M20810 6920
L20830 6900
L20880 6880
L21000 6880
L21040 6900
L21070 6920
L21090 6970
L21090 7020
L21070 7090
L20780 7380
L21090 7380
" />
<path d="M21520 7040
L21520 7380
" />
<path d="M21400 6850
L21290 7210
L21590 7210
" />
<path d="M4190 18500
L2190 18500
" />
<path d="M4710 18730
L4710 18230
L4990 18730
L4990 18230
" />
<path d="M3090 18380
L2810 18380
" />
<path d="M2950 18380
L2950 17880
L2900 17950
L2850 18000
L2810 18020
" />
<path d="M3550 17880
L3310 17880
L3290 18110
L3310 18090
L3360 18070
L3480 18070
L3520 18090
L3550 18110
L3570 18160
L3570 18280
L3550 18330
L3520 18350
L3480 18380
L3360 18380
L3310 18350
L3290 18330
" />
<path d="M20190 5500
L22190 5500
" />
<path d="M18650 5250
L18600 5230
L18530 5230
L18460 5250
L18410 5300
L18390 5350
L18370 5440
L18370 5510
L18390 5610
L18410 5650
L18460 5700
L18530 5730
L18580 5730
L18650 5700
L18670 5680
L18670 5510
L18580 5510
" />
<path d="M18890 5730
L18890 5230
L19170 5730
L19170 5230
" />
<path d="M19410 5730
L19410 5230
L19530 5230
L19600 5250
L19650 5300
L19670 5350
L19690 5440
L19690 5510
L19670 5610
L19650 5650
L19600 5700
L19530 5730
L19410 5730
" />
<path d="M20810 4920
L20830 4900
L20880 4880
L21000 4880
L21040 4900
L21070 4920
L21090 4970
L21090 5020
L21070 5090
L20780 5380
L21090 5380
" />
<path d="M21550 4880
L21310 4880
L21290 5110
L21310 5090
L21360 5070
L21480 5070
L21520 5090
L21550 5110
L21570 5160
L21570 5280
L21550 5330
L21520 5350
L21480 5380
L21360 5380
L21310 5350
L21290 5330
" />
<path d="M4190 19500
L2190 19500
" />
<path d="M4950 19730
L4710 19730
L4710 19230
" />
<path d="M3090 19380
L2810 19380
" />
<path d="M2950 19380
L2950 18880
L2900 18950
L2850 19000
L2810 19020
" />
<path d="M3520 18880
L3430 18880
L3380 18900
L3360 18920
L3310 19000
L3290 19090
L3290 19280
L3310 19330
L3330 19350
L3380 19380
L3480 19380
L3520 19350
L3550 19330
L3570 19280
L3570 19160
L3550 19110
L3520 19090
L3480 19070
L3380 19070
L3330 19090
L3310 19110
L3290 19160
" />
<path d="M4190 20500
L2190 20500
" />
<path d="M4950 20730
L4710 20730
L4710 20230
" />
<path d="M3090 20380
L2810 20380
" />
<path d="M2950 20380
L2950 19880
L2900 19950
L2850 20000
L2810 20020
" />
<path d="M3260 19880
L3590 19880
L3380 20380
" />
<path d="M20190 19500
L22190 19500
" />
<path d="M18650 19250
L18600 19230
L18530 19230
L18460 19250
L18410 19300
L18390 19350
L18370 19440
L18370 19510
L18390 19610
L18410 19650
L18460 19700
L18530 19730
L18580 19730
L18650 19700
L18670 19680
L18670 19510
L18580 19510
" />
<path d="M18890 19730
L18890 19230
L19170 19730
L19170 19230
" />
<path d="M19410 19730
L19410 19230
L19530 19230
L19600 19250
L19650 19300
L19670 19350
L19690 19440
L19690 19510
L19670 19610
L19650 19650
L19600 19700
L19530 19730
L19410 19730
" />
<path d="M21090 19380
L20810 19380
" />
<path d="M20950 19380
L20950 18880
L20900 18950
L20850 19000
L20810 19020
" />
<path d="M21380 19090
L21330 19070
L21310 19040
L21290 19000
L21290 18970
L21310 18920
L21330 18900
L21380 18880
L21480 18880
L21520 18900
L21550 18920
L21570 18970
L21570 19000
L21550 19040
L21520 19070
L21480 19090
L21380 19090
L21330 19110
L21310 19140
L21290 19190
L21290 19280
L21310 19330
L21330 19350
L21380 19380
L21480 19380
L21520 19350
L21550 19330
L21570 19280
L21570 19190
L21550 19140
L21520 19110
L21480 19090
" />
<path d="M20190 17500
L22190 17500
" />
<path d="M18650 17250
L18600 17230
L18530 17230
L18460 17250
L18410 17300
L18390 17350
L18370 17440
L18370 17510
L18390 17610
L18410 17650
L18460 17700
L18530 17730
L18580 17730
L18650 17700
L18670 17680
L18670 17510
L18580 17510
" />
<path d="M18890 17730
L18890 17230
L19170 17730
L19170 17230
" />
<path d="M19410 17730
L19410 17230
L19530 17230
L19600 17250
L19650 17300
L19670 17350
L19690 17440
L19690 17510
L19670 17610
L19650 17650
L19600 17700
L19530 17730
L19410 17730
" />
<path d="M21090 17380
L20810 17380
" />
<path d="M20950 17380
L20950 16880
L20900 16950
L20850 17000
L20810 17020
" />
<path d="M21330 17380
L21430 17380
L21480 17350
L21500 17330
L21550 17260
L21570 17160
L21570 16970
L21550 16920
L21520 16900
L21480 16880
L21380 16880
L21330 16900
L21310 16920
L21290 16970
L21290 17090
L21310 17140
L21330 17160
L21380 17190
L21480 17190
L21520 17160
L21550 17140
L21570 17090
" />
<path d="M11760 2170
L11760 2660
L11790 2710
L11820 2740
L11880 2770
L11990 2770
L12050 2740
L12080 2710
L12110 2660
L12110 2170
" />
<path d="M12480 2710
L12510 2740
L12480 2770
L12450 2740
L12480 2710
L12480 2770
" />
<path d="M12360 2200
L12420 2170
L12560 2170
L12620 2200
L12650 2260
L12650 2310
L12620 2370
L12590 2400
L12540 2430
L12510 2460
L12480 2510
L12480 2540
" />
<path d="M8160 22770
L8160 22170
L8390 22170
L8450 22200
L8480 22230
L8510 22290
L8510 22370
L8480 22430
L8450 22460
L8390 22490
L8160 22490
" />
<path d="M9050 22770
L8760 22770
L8760 22170
" />
<path d="M9600 22710
L9570 22740
L9480 22770
L9420 22770
L9340 22740
L9280 22690
L9250 22630
L9220 22510
L9220 22430
L9250 22310
L9280 22260
L9340 22200
L9420 22170
L9480 22170
L9570 22200
L9600 22230
" />
<path d="M9710 22830
L10170 22830
" />
<path d="M10280 22740
L10370 22770
L10510 22770
L10570 22740
L10600 22710
L10630 22660
L10630 22600
L10600 22540
L10570 22510
L10510 22490
L10400 22460
L10340 22430
L10310 22400
L10280 22340
L10280 22290
L10310 22230
L10340 22200
L10400 22170
L10540 22170
L10630 22200
" />
<path d="M10800 22370
L11030 22370
" />
<path d="M10880 22170
L10880 22690
L10910 22740
L10970 22770
L11030 22770
" />
<path d="M11480 22770
L11480 22460
L11450 22400
L11390 22370
L11280 22370
L11220 22400
" />
<path d="M11480 22740
L11420 22770
L11280 22770
L11220 22740
L11190 22690
L11190 22630
L11220 22570
L11280 22540
L11420 22540
L11480 22510
" />
<path d="M11760 22770
L11760 22370
" />
<path d="M11760 22430
L11790 22400
L11850 22370
L11930 22370
L11990 22400
L12020 22460
L12020 22770
" />
<path d="M12020 22460
L12050 22400
L12110 22370
L12190 22370
L12250 22400
L12280 22460
L12280 22770
" />
<path d="M12560 22370
L12560 22970
" />
<path d="M12560 22400
L12620 22370
L12730 22370
L12790 22400
L12820 22430
L12850 22490
L12850 22660
L12820 22710
L12790 22740
L12730 22770
L12620 22770
L12560 22740
" />
<path d="M12960 22830
L13420 22830
" />
<path d="M13560 22770
L13560 22370
" />
<path d="M13560 22430
L13590 22400
L13650 22370
L13730 22370
L13790 22400
L13820 22460
L13820 22770
" />
<path d="M13820 22460
L13850 22400
L13910 22370
L13990 22370
L14050 22400
L14080 22460
L14080 22770
" />
<path d="M14360 22770
L14360 22370
" />
<path d="M14360 22170
L14330 22200
L14360 22230
L14390 22200
L14360 22170
L14360 22230
" />
<path d="M14650 22370
L14650 22770
" />
<path d="M14650 22430
L14680 22400
L14740 22370
L14820 22370
L14880 22400
L14910 22460
L14910 22770
" />
<path d="M15190 22770
L15190 22370
" />
<path d="M15190 22170
L15160 22200
L15190 22230
L15220 22200
L15190 22170
L15190 22230
" />
<path d="M15340 22830
L15800 22830
" />
<path d="M15910 22230
L15940 22200
L16000 22170
L16140 22170
L16200 22200
L16230 22230
L16260 22290
L16260 22340
L16230 22430
L15890 22770
L16260 22770
" />
</g> 
</svg>
